<svg id="icon-search" xmlns="http://www.w3.org/2000/svg" viewBox="0 0 511.89 512">
  <title>icon-search</title>
  <path id="search-symbol" d="M507.52,485.89L383.09,361.47a217.43,217.43,0,0,0,53.58-143.16C436.68,97.86,338.7,0,218.37,0S0.06,98,.06,218.31,98,436.62,218.37,436.62A217.43,217.43,0,0,0,361.52,383L485.95,507.46A15.43,15.43,0,0,0,496.73,512a15,15,0,0,0,10.78-4.54A15.35,15.35,0,0,0,507.52,485.89ZM30.6,218.31c0-103.54,84.24-187.66,187.66-187.66s187.66,84.24,187.66,187.66S321.79,406.08,218.25,406.08,30.6,321.84,30.6,218.31Z" transform="translate(-0.06)"/>
</svg>
