<svg id="instagram" xmlns="http://www.w3.org/2000/svg" viewBox="0 0 48 47">
  <title>instagram</title>
  <path id="instagram-square" d="M40.4,5.5H35.6A2.6,2.6,0,0,0,33,8.1v4.8a2.6,2.6,0,0,0,2.6,2.6h4.8A2.6,2.6,0,0,0,43,12.9V8.1A2.6,2.6,0,0,0,40.4,5.5Zm.6,7.4a.6.6,0,0,1-.6.6H35.6a.6.6,0,0,1-.6-.6V8.1a.6.6,0,0,1,.6-.6h4.8a.6.6,0,0,1,.6.6Z" transform="translate(0 -0.5)"/>
  <path id="instagram-camera" d="M37.8.5H10.2A10.23,10.23,0,0,0,0,10.73V37.27A10.23,10.23,0,0,0,10.2,47.5H37.8A10.23,10.23,0,0,0,48,37.27V10.73A10.23,10.23,0,0,0,37.8.5ZM46,37.27a8.22,8.22,0,0,1-8.2,8.23H10.2A8.22,8.22,0,0,1,2,37.27V19.5H14.22a14,14,0,1,0,19.56,0H46ZM36,29.5a12,12,0,1,1-12-12A12,12,0,0,1,36,29.5Zm-4.83-12a13.87,13.87,0,0,0-14.35,0H2V10.73A8.22,8.22,0,0,1,10.2,2.5H37.8A8.22,8.22,0,0,1,46,10.73V17.5Z" transform="translate(0 -0.5)"/>
  <path id="instagram-lens" d="M15,29.5a9,9,0,1,0,9-9A9,9,0,0,0,15,29.5Zm16,0a7,7,0,1,1-7-7A7,7,0,0,1,31,29.5Z" transform="translate(0 -0.5)"/>
</svg>
