<svg id="Ebene_1" data-name="Ebene 1" xmlns="http://www.w3.org/2000/svg" viewBox="0 0 48.37 33.98">
  <title>logo</title>
  <path d="M189.37,250.58a1.79,1.79,0,0,1,1.08-1.12,8.51,8.51,0,0,1,2.52-.37v-1q-4.71.14-13.92,0.14c-3.19,0-5.79,0-7.83-.05H171l-1.34,0c-0.75,0-1.36,0-1.78,0l-0.66,0h-0.06c-2.14,0-5,.07-8.63.07q-9.21,0-13.92-.14v1a8.51,8.51,0,0,1,2.52.38,1.79,1.79,0,0,1,1.08,1.13,8.49,8.49,0,0,1,.29,2.63V277a8.49,8.49,0,0,1-.29,2.63,1.79,1.79,0,0,1-1.08,1.13,8.51,8.51,0,0,1-2.52.38v1q2-.14,6.14-0.14,3.89,0,6.09.14v-1a8.51,8.51,0,0,1-2.52-.37,1.79,1.79,0,0,1-1.08-1.12,8.49,8.49,0,0,1-.29-2.62V253.21a8.37,8.37,0,0,1,.29-2.61,1.72,1.72,0,0,1,1.08-1.09,8.13,8.13,0,0,1,2.52-.28h3.52a9.8,9.8,0,0,1,4.56.84,4.86,4.86,0,0,1,2.25,2.7,23.39,23.39,0,0,1,1.07,5.44h1.12a23.39,23.39,0,0,1,1.07-5.44,4.86,4.86,0,0,1,2.25-2.7,9.8,9.8,0,0,1,4.56-.84h3.52a8.13,8.13,0,0,1,2.52.28,1.72,1.72,0,0,1,1.08,1.09,8.37,8.37,0,0,1,.29,2.61V277a8.49,8.49,0,0,1-.29,2.63,1.79,1.79,0,0,1-1.08,1.13,8.51,8.51,0,0,1-2.52.38v1q2.2-.14,6.09-0.14,4.15,0,6.14.14v-1a8.51,8.51,0,0,1-2.52-.37,1.79,1.79,0,0,1-1.08-1.12,8.49,8.49,0,0,1-.29-2.62V253.21A8.49,8.49,0,0,1,189.37,250.58Z" transform="translate(-144.6 -248.12)" fill="#fff"/>
</svg>
