<?xml version="1.0" encoding="UTF-8"?><!DOCTYPE svg PUBLIC "-//W3C//DTD SVG 1.1//EN" "http://www.w3.org/Graphics/SVG/1.1/DTD/svg11.dtd"><svg xmlns="http://www.w3.org/2000/svg"><symbol id="backend" viewBox="0 0 500.2 500.2"><title>backend</title><path id="backend-middle" d="M159 152.9h194.4" fill="none" stroke="#3c3c3c" stroke-miterlimit="10" stroke-width="30" opacity=".8" style="isolation:isolate"/><path id="backend-frame" d="M14 14h472.2v472.2H14z" fill="none" stroke="#3c3c3c" stroke-miterlimit="10" stroke-width="28"/></symbol><symbol id="bulb" viewBox="0 0 50 54"><title>bulb</title><path id="bulb-body" d="M25 8a17 17 0 0 0-6 32.9V50a1 1 0 0 0 1 1h1v2a1 1 0 0 0 1 1h6a1 1 0 0 0 1-1v-2h1a1 1 0 0 0 1-1v-9.1A17 17 0 0 0 25 8zm3 41a1 1 0 0 0-1 1v2h-4v-2a1 1 0 0 0-1-1h-1v-5h8v5zm1.69-9.76a1 1 0 0 0-.69 1V42h-8v-1.81a1 1 0 0 0-.69-1 15 15 0 1 1 9.38 0z"/><path d="M25 6a1 1 0 0 0 1-1V1a1 1 0 0 0-2 0v4a1 1 0 0 0 1 1zM49 24h-4a1 1 0 0 0 0 2h4a1 1 0 0 0 0-2zM5 24H1a1 1 0 0 0 0 2h4a1 1 0 0 0 0-2zM41.26 7.32l-2.83 2.83a1 1 0 1 0 1.41 1.41l2.83-2.83a1 1 0 1 0-1.41-1.41zM10.15 38.44l-2.83 2.82a1 1 0 1 0 1.41 1.41l2.83-2.83a1 1 0 0 0-1.41-1.41zM39.85 38.44a1 1 0 1 0-1.41 1.41l2.83 2.83a1 1 0 0 0 1.41-1.41zM10.15 11.56a1 1 0 0 0 1.41-1.41L8.74 7.32a1 1 0 1 0-1.42 1.42zM25 13a12 12 0 0 0-12 12 1 1 0 0 0 2 0 10 10 0 0 1 10-10 1 1 0 0 0 0-2z"/></symbol><symbol id="clock" viewBox="0 0 490 490"><title>clock</title><path id="clock-body" d="M256 501a245 245 0 1 1 245-245 244.76 244.76 0 0 1-245 245zm0-469.1A223.68 223.68 0 0 0 31.9 256C31.9 380.1 133 480.1 256 480.1c124.1 0 224.1-101.1 224.1-224.1A223.68 223.68 0 0 0 256 31.9z" transform="translate(-11 -11)"/><path id="clock-arrow" d="M255.4 255.4H122v-20.8h112.6V54.2h20.8v201.2z"/></symbol><symbol id="cloud" viewBox="0 0 60 50"><title>cloud</title><path id="cloud-body" d="M51 21.19A17.12 17.12 0 0 0 34.08 5a17.63 17.63 0 0 0-13.95 7l-.23-.1-.6-.27-.3-.12-.6-.19-.4-.09c-.22-.05-.44-.09-.67-.12h-.32A8.81 8.81 0 0 0 16 11a9 9 0 0 0-9 9v.38a13.83 13.83 0 0 0-7 11.77A12.86 12.86 0 0 0 12.85 45H18a1 1 0 0 0 0-2h-5.16A10.86 10.86 0 0 1 2 32.15 11.89 11.89 0 0 1 8.43 21.9l.57-.27V21v-.74-.25a7 7 0 0 1 7.92-6.93h.23a7 7 0 0 1 .79.18h.11a7 7 0 0 1 .83.32l.21.1a6.91 6.91 0 0 1 .7.4A7 7 0 0 1 23 20a1 1 0 1 0 2 0 9 9 0 0 0-3.2-6.87A15.84 15.84 0 0 1 34.08 7a15.1 15.1 0 0 1 14.85 13.89 19.1 19.1 0 0 0-4.08.12A1 1 0 0 0 45 23h.15a18.44 18.44 0 0 1 4.68 0A10.25 10.25 0 0 1 58 33a10 10 0 0 1-10 10h-4a1 1 0 0 0 0 2h4a12 12 0 0 0 12-12 12.31 12.31 0 0 0-9-11.81z" transform="translate(0 -5)"/><path id="cloud-arrow" d="M41 43a1 1 0 0 0-1 1 9 9 0 1 1-9-9 8.67 8.67 0 0 1 7.31 4H32a1 1 0 0 0 0 2h8a1 1 0 0 0 .21 0 1.08 1.08 0 0 0 .18 0l.09-.06a.63.63 0 0 0 .33-.31 1 1 0 0 0 .1-.17 1 1 0 0 0 .05-.26A1.09 1.09 0 0 0 41 40v-8a1 1 0 0 0-2 0v4.6a10.6 10.6 0 0 0-8-3.6 11 11 0 1 0 11 11 1 1 0 0 0-1-1z" transform="translate(0 -5)"/></symbol><symbol id="desktop" viewBox="0 0 64.06 45.5"><title>desktop</title><path id="desktop-frame" stroke-width="6" d="M104.13 246.75H40.06v-39.19h64.06v39.19zm-63.06-1h62.06v-37.19H41.06v37.19z" transform="translate(-40.06 -207.56)"/><path id="desktop-stand" d="M25.38 44.5h14v1h-14z"/></symbol><symbol id="dot" viewBox="0 0 17 17"><title>dot</title><circle id="dot-body" cx="8.5" cy="8.5" r="8.5"/></symbol><symbol id="dribbble" viewBox="0 0 438.53 438.53"><title>dribbble</title><path id="dribbble-body" d="M409.13 109.2a218.35 218.35 0 0 0-79.8-79.8Q278.94 0 219.27 0T109.21 29.41a218.29 218.29 0 0 0-79.8 79.8Q0 159.6 0 219.27t29.41 110.06a218.35 218.35 0 0 0 79.8 79.8q50.4 29.41 110.06 29.41t110.07-29.41a218.29 218.29 0 0 0 79.8-79.8q29.4-50.39 29.4-110.06T409.13 109.2zM219.27 32q70.8 0 123.62 46.82l-3.57 5q-2.14 3-10.7 11.57a183.51 183.51 0 0 1-18.7 16.27 250.48 250.48 0 0 1-27.55 17.56 265 265 0 0 1-37.12 17.28Q212.42 85.93 175 37.4a188.88 188.88 0 0 1 44.27-5.4zM72.52 103.06A184.76 184.76 0 0 1 139.33 50q35.4 47.07 69.67 107.88a677.32 677.32 0 0 1-173 22.84 185.11 185.11 0 0 1 36.52-77.66zm-28 183.73A183.71 183.71 0 0 1 32 219.27a46.52 46.52 0 0 1 .29-6q103.36 0 192.15-26.55 9.14 17.7 15.13 31.69a23.09 23.09 0 0 1-3.71 1.28c-1.72.48-3 .81-3.72 1l-10.56 3.71q-10.85 4-28.41 13.7t-37.26 23.13q-19.7 13.42-40.68 35.55a239.31 239.31 0 0 0-35.26 47.53 187.5 187.5 0 0 1-35.43-57.52zm174.75 119.77q-66.81 0-119.34-42.83l4.28 3.14q10-22 29.41-42.26t37.4-32.7a368.56 368.56 0 0 1 39.12-23.41q21.13-11 28.83-14t12.28-4.72l.57-.29h.57q28 73.37 40 142.18a187.2 187.2 0 0 1-73.12 14.89zm157.61-86.08a187.1 187.1 0 0 1-52.82 54.1 804.41 804.41 0 0 0-36.55-133.9q56.82-8.86 116.77 8.27a184.77 184.77 0 0 1-27.4 71.53zm26.83-103.78q-2.85-.57-7.14-1.28l-10.42-1.71q-6.13-1-13.7-1.85t-16.14-1.57q-8.56-.72-18.27-1.14t-19.7-.43q-10 0-21 .57t-21.27 2a33.82 33.82 0 0 1-2.14-4.71c-.86-2.19-1.48-3.85-1.85-5q-5.43-12-12.57-27.12A293 293 0 0 0 297.08 156a291.8 291.8 0 0 0 28.54-18.56 237.32 237.32 0 0 0 20.27-17.28 164.78 164.78 0 0 0 12.42-12.7q2.86-3.58 5.42-7l.29-.29q41.69 50.83 42.54 117.1z"/></symbol><symbol id="form" viewBox="0 0 458.81 484.3"><title>form</title><path fill="#3c3c3c" d="M0 0h458.81v25.49H0z" id="form-top-top"/><path fill="#3c3c3c" d="M0 76.47h458.81v25.49H0z" id="form-top-bottom"/><path fill="#3c3c3c" d="M0 135.95h458.81v25.49H0z" id="form-middle-top"/><path fill="#3c3c3c" d="M0 212.41h458.81v25.49H0z" id="form-middle-bottom"/><path fill="#3c3c3c" d="M0 271.89h458.81v25.49H0z" id="form-bottom-top"/><path fill="#3c3c3c" d="M0 458.81h458.81v25.49H0z" id="form-bottom-bottom"/><path fill="#3c3c3c" d="M433.32 271.89h25.49V484.3h-25.49z" id="form-bottom-right"/><path fill="#3c3c3c" d="M0 271.89h25.49V484.3H0z" id="form-bottom-left"/><path fill="#3c3c3c" d="M433.32 135.95h25.49v101.96h-25.49z" id="form-middle-right"/><path fill="#3c3c3c" d="M0 135.95h25.49v101.96H0z" id="form-middle-left"/><path fill="#3c3c3c" d="M433.32 0h25.49v101.96h-25.49z" id="form-top-right"/><path fill="#3c3c3c" d="M0 0h25.49v101.96H0z" id="form-top-left"/></symbol><symbol id="frontend" viewBox="0 0 495.7 353.25"><title>frontend</title><path id="frontend-stand" d="M187.85 344.75h119.7" fill="none" stroke="#3c3c3c" stroke-miterlimit="10" stroke-width="17" opacity=".8" style="isolation:isolate"/><path id="frontend-frame" d="M8.5 8.5h478.7v290.6H8.5z" fill="none" stroke="#3c3c3c" stroke-miterlimit="10" stroke-width="17"/></symbol><symbol id="github" viewBox="0 0 438.55 427.82"><title>github</title><path id="github-body" d="M409.13 114.57a218.32 218.32 0 0 0-79.8-79.8Q278.94 5.36 219.27 5.36T109.21 34.77a218.29 218.29 0 0 0-79.8 79.8Q0 165 0 224.63q0 71.67 41.83 128.91t108.06 79.23q7.71 1.43 11.42-2a11.17 11.17 0 0 0 3.69-8.57q0-.86-.14-15.42t-.14-25.41l-6.57 1.14a83.77 83.77 0 0 1-15.85 1 120.73 120.73 0 0 1-19.84-2 44.34 44.34 0 0 1-19.11-8.51 36.23 36.23 0 0 1-12.56-17.6l-2.86-6.57a71.34 71.34 0 0 0-9-14.56q-6.14-8-12.42-10.85l-2-1.43a21 21 0 0 1-3.71-3.43 15.66 15.66 0 0 1-2.57-4q-.86-2 1.43-3.29C61.2 310.42 64 310 68 310l5.71.85q5.71 1.14 14.13 6.85a46.08 46.08 0 0 1 13.85 14.84q6.57 11.71 15.85 17.85t18.7 6.14a81.19 81.19 0 0 0 16.27-1.42 56.78 56.78 0 0 0 12.85-4.29q2.57-19.14 14-29.41a195.49 195.49 0 0 1-29.36-5.13 116.52 116.52 0 0 1-26.83-11.14 76.86 76.86 0 0 1-23-19.13q-9.14-11.42-15-30t-5.8-42.81q0-34.55 22.56-58.82-10.57-26 2-58.24 8.28-2.57 24.55 3.85t23.84 11q7.57 4.56 12.13 7.71a206.2 206.2 0 0 1 109.64 0l10.85-6.85a153.65 153.65 0 0 1 26.26-12.56q15.13-5.71 23.13-3.14 12.84 32.26 2.28 58.24 22.55 24.27 22.56 58.82 0 24.27-5.85 43t-15.12 30a79.82 79.82 0 0 1-23.13 19 116.74 116.74 0 0 1-26.84 11.14 195.29 195.29 0 0 1-29.23 5.07q14.8 12.84 14.81 40.58v60.2a11.37 11.37 0 0 0 3.57 8.56q3.57 3.42 11.28 2 66.24-22 108.07-79.23t41.83-128.91q-.03-59.62-29.43-110.05z" transform="translate(0 -5.36)"/></symbol><symbol id="glasses" viewBox="0 0 60 24"><title>glasses</title><path id="glasses-body" d="M59 28h-2.18a12 12 0 0 0-23.57-.42 4.85 4.85 0 0 0-6.49 0A12 12 0 0 0 3.05 29H1a1 1 0 0 0 0 2h2.05A12 12 0 0 0 27 30.33a3.8 3.8 0 0 1 3-2 3.8 3.8 0 0 1 3 2A12 12 0 0 0 57 30h2a1 1 0 0 0 0-2zM15.07 40a10 10 0 1 1 0-20 10 10 0 0 1 0 20zm30 0a10 10 0 1 1 0-20 10 10 0 0 1 0 20z" transform="translate(0 -18)"/></symbol><symbol id="icon-search" viewBox="0 0 511.89 512"><title>icon-search</title><path id="search-symbol" d="M507.52 485.89L383.09 361.47a217.43 217.43 0 0 0 53.58-143.16C436.68 97.86 338.7 0 218.37 0S.06 98 .06 218.31 98 436.62 218.37 436.62A217.43 217.43 0 0 0 361.52 383l124.43 124.46a15.43 15.43 0 0 0 10.78 4.54 15 15 0 0 0 10.78-4.54 15.35 15.35 0 0 0 .01-21.57zM30.6 218.31c0-103.54 84.24-187.66 187.66-187.66s187.66 84.24 187.66 187.66-84.13 187.77-187.67 187.77S30.6 321.84 30.6 218.31z" transform="translate(-.06)"/></symbol><symbol id="instagram" viewBox="0 0 169.06 169.06"><title>instagram</title><path id="instagram-body" d="M122.41 0H46.65A46.71 46.71 0 0 0 0 46.65v75.75a46.71 46.71 0 0 0 46.65 46.65h75.75a46.71 46.71 0 0 0 46.66-46.65V46.65A46.71 46.71 0 0 0 122.41 0zm31.66 122.41a31.69 31.69 0 0 1-31.66 31.65H46.65A31.69 31.69 0 0 1 15 122.41V46.65A31.69 31.69 0 0 1 46.65 15h75.75a31.69 31.69 0 0 1 31.66 31.65v75.75z"/><path id="instagram-camera" d="M84.53 41a43.56 43.56 0 1 0 43.56 43.56A43.61 43.61 0 0 0 84.53 41zm0 72.12a28.56 28.56 0 1 1 28.56-28.56 28.59 28.59 0 0 1-28.56 28.53z"/><path id="instagram-lense" d="M129.92 28.25a11 11 0 1 0 7.78 3.22 11 11 0 0 0-7.78-3.22z"/></symbol><symbol id="letter" viewBox="0 0 489.52 300.39"><title>letter</title><path fill="#3c3c3c" d="M122.38 44.5h16.69v94.57h-16.69z" id="letter-rect-right"/><path fill="#3c3c3c" d="M50.06 44.5h16.69v94.57H50.06z" id="letter-rect-left"/><path fill="#3c3c3c" d="M50.06 127.94h89v16.69h-89z" id="letter-rect-bottom"/><path fill="#3c3c3c" d="M50.06 44.5h89v16.69h-89z" id="letter-rect-top"/><path d="M405.12 172.66c-11.52 8.9-18.54 8.9-30.06 0-17.28-13.34-34.78-13.34-52 0-12.29 9.49-18.27 8.25-28.95 0-8.55-6.61-16.81-9.93-25.08-10v17.44c4.67 0 9.35 2.2 14.92 6.51 17.49 13.51 31.76 13.51 49.26 0 11.12-8.59 20.61-8.59 31.73 0 17.42 13.45 33 13.45 50.37 0 6.41-4.95 10.89-7.14 15.59-6.59v-17.43c-8.3-.43-16.5 2.9-25.78 10.07z" fill="#3c3c3c" id="letter-wave-top"/><path d="M405.12 222.67c-11.52 8.9-18.54 8.9-30.06 0-17.28-13.34-34.78-13.34-52 0-12.29 9.49-18.27 8.25-28.95 0-8.55-6.61-16.81-9.93-25.08-10v17.43c4.67 0 9.35 2.2 14.92 6.51 17.49 13.51 31.76 13.51 49.26 0 11.12-8.59 20.61-8.59 31.73 0 17.42 13.45 33 13.45 50.37 0 6.41-4.95 10.89-7.14 15.59-6.59V212.6c-8.3-.44-16.5 2.9-25.78 10.07z" fill="#3c3c3c" id="letter-wave-bottom"/><path fill="#3c3c3c" d="M5.56 0h478.4v16.69H5.56z" id="letter-top"/><path fill="#3c3c3c" d="M5.56 283.7h478.4v16.69H5.56z" id="letter-bottom"/><path fill="#3c3c3c" d="M0 0h16.69v300.39H0z" id="letter-left"/><path fill="#3c3c3c" d="M472.84 0h16.69v300.39h-16.69z" id="letter-right"/></symbol><symbol id="logo-klein" viewBox="0 0 123.23 125.46"><title>logo-klein</title><g fill="#fff" id="logo-magellan"><path d="M20.6 104.26c-1 0-1.22.2-1.22 1.29V113c0 1.09.2 1.24 1.22 1.29v.3h-3.83v-.3c1 0 1.21-.2 1.21-1.29v-8l-3.62 9.69h-.24l-3.79-9.73v7.92c0 1.1.2 1.4 1.37 1.44v.3H8.78v-.3c1 0 1.22-.34 1.22-1.44v-7.29c0-1.09-.2-1.25-1.22-1.29v-.3h2.67l3.3 8.7L18 104h2.62v.3zM36.15 113.32c.3.76.73.94 1 1v.3H33.62v-.3c.73 0 1.06-.14 1.06-.56a2.05 2.05 0 0 0-.18-.7l-.92-2.46H30l-.62 1.59a3.54 3.54 0 0 0-.3 1.23c0 .65.45.88 1.31.9v.3h-1.73a11.07 11.07 0 0 0-1.12 0v-.3c.39-.09.84-.4 1.18-1.3l3.54-9.09h.24zm-4.32-7.54l-1.72 4.47h3.41zM51.71 104.72a.51.51 0 0 0 .3.15c.19 0 .32-.29.37-.92h.35c0 .73-.06 1.71-.06 3.45h-.35a4.64 4.64 0 0 0-.76-2.22A3.38 3.38 0 0 0 49 104c-2 0-3.31 2-3.31 5.27 0 3.6 1.13 5.21 3.58 5.21a2.75 2.75 0 0 0 1.56-.47.81.81 0 0 0 .43-.82v-1.44c0-1.22-.26-1.39-1.52-1.44V110c.53 0 1.45.05 2.12.05s1.2 0 1.56-.05v.3c-.66.05-.76.18-.76 1.29v3h-.3c0-.34-.15-.86-.41-.86s-.19 0-.49.26a3.69 3.69 0 0 1-2.35.81c-3.11 0-4.92-2-4.92-5.34 0-3.5 2-5.71 4.84-5.71a4.17 4.17 0 0 1 2.68.97zM68.76 114.58H60.96v-.3c1 0 1.22-.2 1.22-1.29v-7.44c0-1.09-.2-1.25-1.22-1.29V104h7.5c-.07.7-.1 1.43-.1 1.77a8.08 8.08 0 0 0 0 .93h-.34c-.2-1.77-.43-2.36-2-2.36h-1.23c-1 0-1.22.15-1.22 1.25v3.54h1c1.31 0 1.28-1.26 1.39-2h.34c0 .64-.05 1.07-.05 1.41v.72c0 .49 0 1 .09 2.13H66c-.12-1-.13-2-1.44-2h-1V113c0 1.09.2 1.24 1.22 1.24h1.1c1.88 0 2.25-.67 2.47-2.66h.35v1.08c0 .41-.02 1.16.06 1.92zM80.34 104.26c-1 0-1.22.2-1.22 1.29V113c0 1.09.2 1.24 1.22 1.24h1.1c1.88 0 2.25-.72 2.47-2.8h.34v1.23c0 .48 0 1.16.1 1.92H76.55v-.3c1 0 1.22-.2 1.22-1.29v-7.44c0-1.09-.2-1.25-1.22-1.29V104h3.83v.3zM95.58 104.26c-1 0-1.22.2-1.22 1.29V113c0 1.09.2 1.24 1.22 1.24h1.1c1.88 0 2.25-.72 2.47-2.8h.34v1.23c0 .48 0 1.16.1 1.92H91.79v-.3c1 0 1.22-.2 1.22-1.29v-7.44c0-1.09-.2-1.25-1.22-1.29V104h3.83zM114.88 113.32c.3.76.73.94 1 1v.3h-3.54v-.3c.73 0 1.06-.14 1.06-.56a2.06 2.06 0 0 0-.18-.7l-.92-2.46h-3.63l-.62 1.59a3.52 3.52 0 0 0-.3 1.23c0 .65.45.88 1.31.9v.3h-1.73a11.07 11.07 0 0 0-1.12 0v-.3c.39-.09.84-.4 1.18-1.3l3.54-9.09h.24zm-4.32-7.54l-1.72 4.47h3.41zM132 104.26c-1 0-1.22.34-1.22 1.44v9h-.34l-6.31-9.73v7.92c0 1.1.2 1.4 1.37 1.44v.3h-2.92v-.3c1 0 1.22-.34 1.22-1.44v-7.29c0-1.09-.2-1.25-1.22-1.29V104H125.14l5.31 8.16v-6.46c0-1.1-.19-1.4-1.37-1.44V104H132v.3z" transform="translate(-8.76 -12.87)"/></g><g fill="#fff" id="logo-media"><path d="M52.85 130.71c-.75 0-.89.14-.89.95v5.46c0 .8.15.91.89.95v.22H50.04v-.22c.75 0 .89-.15.89-.95v-5.89l-2.66 7.11h-.18l-2.78-7.14v5.8c0 .81.15 1 1 1.06v.22h-2.13v-.22c.75 0 .89-.25.89-1.06v-5.34c0-.8-.15-.91-.89-.95v-.22h1.94l2.42 6.38 2.37-6.35h1.92zM64.19 138.28h-5.73v-.22c.75 0 .89-.15.89-.95v-5.46c0-.8-.15-.91-.89-.95v-.22h5.51c-.05.52-.08 1-.08 1.3a5.93 5.93 0 0 0 0 .68h-.25c-.15-1.3-.31-1.73-1.48-1.73h-.92c-.75 0-.89.11-.89.91v2.59h.73c1 0 .94-.92 1-1.45h.25v1.53c0 .36 0 .72.06 1.56h-.25c-.09-.7-.1-1.46-1.06-1.46h-.73v2.64c0 .8.15.91.89.91h.81c1.38 0 1.65-.49 1.81-1.95h.25v.79c0 .3.02.92.08 1.48zM76.77 134.3a3.69 3.69 0 0 1-4 4h-2.92v-.22c.75 0 .89-.15.89-.95v-5.46c0-.8-.15-.91-.89-.95v-.22h3.01c2.65-.01 3.91 1.34 3.91 3.8zm-5-2.66v5.5c0 .77.15.95.83.95 2.4 0 3.05-1.34 3.05-3.74s-.78-3.65-3.06-3.65c-.66-.01-.81.18-.81.93zM85.25 130.71c-.75 0-.89.14-.89.95v5.46c0 .8.15.91.89.95v.22H82.44v-.22c.75 0 .89-.15.89-.95v-5.46c0-.8-.15-.91-.89-.95v-.22H85.25zM96.65 137.35c.22.56.53.69.76.7v.22H94.81v-.22c.53 0 .78-.1.78-.41a1.51 1.51 0 0 0-.13-.52l-.68-1.8h-2.65l-.45 1.17a2.58 2.58 0 0 0-.22.9c0 .48.33.64 1 .66v.22h-1.27a8.13 8.13 0 0 0-.82 0v-.22c.29-.06.61-.3.87-1l2.6-6.67H94zm-3.17-5.53l-1.27 3.28h2.5z" transform="translate(-8.76 -12.87)"/></g><path d="M120 77.35c-6.62-.28-7.91-1.24-7.91-8.1V22.5c0-6.86 1.29-7.82 7.91-8.1l-.29-1.52H20.9l-.29 1.59c6.62.28 7.91 1.24 7.91 8.1v46.76c0 6.86-1.29 7.82-7.91 8.1l-.47 1.72H45.8l-.32-1.72c-6.62-.28-7.91-1.24-7.91-8.1V22.58c0-6.86 1.29-7.82 7.91-7.82h7.14C64.81 14.76 67 18.92 68.43 32h3.77c1.38-13.08 3.62-17.32 15.8-17.32h7.14c6.62 0 7.91 1 7.91 7.82v46.75c0 6.86-1.29 7.82-7.91 8.1l-.32 1.8h25.66z" transform="translate(-8.76 -12.87)" fill="#fff" id="logo-body"/></symbol><symbol id="menu" viewBox="0 0 20 14"><title>menu</title><path id="menu-top" d="M0 0h20v3H0z"/><path id="menu-bottom" d="M0 11h20v3H0z"/></symbol><symbol id="pen" viewBox="0 0 55.25 55.25"><title>pen</title><path id="pen-body" d="M52.62 2.63a9 9 0 0 0-12.73 0L3.83 38.69v.06l-.06.08a1 1 0 0 0-.12.24v.08L0 54a1 1 0 0 0 0 .2 1 1 0 0 0 .06.33v.07a1 1 0 0 0 .2.3 1 1 0 0 0 .33.22 1 1 0 0 0 .38.08h.23l14.85-3.53h.18a1 1 0 0 0 .2-.12l.07-.05 36.12-36.14a9 9 0 0 0 0-12.73zM51.2 4a7 7 0 0 1 .65 9.14l-9.78-9.75A7 7 0 0 1 51.2 4zm-4.95 14.89L36.35 9l1.41-1.41 9.9 9.9zM5 50.29a1 1 0 0 0-1.41 0l-.8.71 2.55-10.68 4.42-.49-.56 5.12a1 1 0 0 0 0 .11 1 1 0 0 0 0 .11v.09a1 1 0 0 0 .05.17 1 1 0 0 0 .1.18l.1.13a1 1 0 0 0 .16.13l.14.08.25.05h.33l5.12-.57-.49 4.42L4.2 52.46l.8-.76a1 1 0 0 0 0-1.41zm12.55-5.48l22.34-22.38A1 1 0 0 0 38.47 21L16.1 43.39l-4.77.53.53-4.77 22.37-22.38a1 1 0 0 0-1.41-1.41L10.44 37.74l-3.18.35 27.68-27.68 9.9 9.9L17.16 48zm31.53-28.74l-9.9-9.9 1.42-1.42 9.9 9.9z"/></symbol><symbol id="performance" viewBox="0 0 388.75 446.65"><title>performance</title><path id="perf-1" d="M95.88 446.58v-132.3" fill="none" stroke="#3c3c3c" stroke-miterlimit="10" stroke-width="25" opacity=".8" style="isolation:isolate"/><path id="perf-2" d="M161.98 446.58v-215" fill="none" stroke="#3c3c3c" stroke-miterlimit="10" stroke-width="25" opacity=".8" style="isolation:isolate"/><path id="perf-3" d="M227.98 446.58v-99.2" fill="none" stroke="#3c3c3c" stroke-miterlimit="10" stroke-width="25" opacity=".8" style="isolation:isolate"/><path id="perf-4" d="M294.18 432.48v-159.5" fill="none" stroke="#3c3c3c" stroke-miterlimit="10" stroke-width="25" opacity=".8" style="isolation:isolate"/><path id="perf-frame" d="M12.38 12.38h364v421.9h-364z" fill="none" stroke="#3c3c3c" stroke-miterlimit="10" stroke-width="24.75"/></symbol><symbol id="petel" viewBox="0 0 17.5 13.19"><title>petel</title><path id="petel-body" d="M0 9.18s3.13-7.62 3.88-7.87 7.25-2 9-1 4.5 3.32 4.63 4.28-2.37 5.34-3.75 6-8 2.75-9.75 2.63S.9 12.16 0 9.18z" fill="#fff"/></symbol><symbol id="phone" viewBox="0 0 321.17 431.36"><title>phone</title><path id="phone-body" d="M369.88 393.8l9.69-5.58-84.32-138.17 4.5-46.82L227.18 95l-1 .7-78.57 48L73.75 21.14 58.4 30l76.52 126.15-17.44 33.12L274.61 452.5l12.62-8.17zM136.55 186.65l12.54-23.13L221.94 119l58.83 87.74-3.77 47.4 78.08 128-75.18 46z" transform="translate(-58.4 -21.14)" fill="#3c3c3c"/></symbol><symbol id="plane" viewBox="0 0 60.06 44.99"><title>plane</title><path id="plane-body" d="M59.84 7.9a1 1 0 0 0-.89-.35h-.22L.74 23.35a1 1 0 0 0 0 1.91l21.22 7L20 47.4a1 1 0 0 0 1.6.92l7.76-5.95 6.81 9.72a1 1 0 0 0 .82.43h.07a1 1 0 0 0 .82-.54L59.95 9a1 1 0 0 0-.11-1.1zm-6.94 3.34l-30 19.19-18.38-6zm-30.61 34l1.38-11.05 4.56 6.51zm14.58 4.31L24.42 31.81l32.1-20.51z" transform="translate(0 -7.54)"/></symbol><symbol id="search" viewBox="0 0 19.12 19.66"><title>search</title><circle id="search-glass" cx="11.34" cy="7.78" r="6.78" fill="none" stroke="#fff" stroke-miterlimit="10" stroke-width="2"/><path id="search-stick" transform="rotate(-45 3.666 16.382)" d="M-.24 15.1h8.89v2H-.24z"/></symbol><symbol id="seo" viewBox="0 0 487.2 370.6"><title>seo</title><path id="seo-4" d="M89.2 291.6h226.4" fill="none" stroke="#3c3c3c" stroke-miterlimit="10" stroke-width="20" opacity=".8" style="isolation:isolate"/><path id="seo-3" d="M89.2 229.9h144.1" fill="none" stroke="#3c3c3c" stroke-miterlimit="10" stroke-width="20" opacity=".8" style="isolation:isolate"/><path id="seo-2" d="M89.2 147.5h226.4" fill="none" stroke="#3c3c3c" stroke-miterlimit="10" stroke-width="20" opacity=".8" style="isolation:isolate"/><path id="seo-1" d="M89.2 85.8h144.1" fill="none" stroke="#3c3c3c" stroke-miterlimit="10" stroke-width="20" opacity=".8" style="isolation:isolate"/><path id="seo-frame" d="M10.3 10.3h466.6v350H10.3z" fill="none" stroke="#3c3c3c" stroke-miterlimit="10" stroke-width="20.6"/></symbol></svg>