<?xml version="1.0" encoding="UTF-8"?><!DOCTYPE svg PUBLIC "-//W3C//DTD SVG 1.1//EN" "http://www.w3.org/Graphics/SVG/1.1/DTD/svg11.dtd"><svg xmlns="http://www.w3.org/2000/svg"><symbol id="clock" viewBox="0 0 490 490"><title>clock</title><path id="clock-body" d="M245 490a245 245 0 1 1 245-245 244.76 244.76 0 0 1-245 245zm0-469.1A223.68 223.68 0 0 0 20.9 245C20.9 369.1 122 469.1 245 469.1c124.1 0 224.1-101.1 224.1-224.1A223.68 223.68 0 0 0 245 20.9z"/><path id="clock-arrow" d="M255.4 255.4H122v-20.8h112.6V54.2h20.8v201.2z"/></symbol><symbol id="desktop" viewBox="0 0 64.06 45.5"><title>desktop</title><path id="desktop-frame" stroke-width="6" d="M64.07 39.19H0V0h64.06v39.19zm-63.06-1h62.06V1H1v37.19z"/><path id="desktop-stand" d="M25.38 44.5h14v1h-14z"/></symbol><symbol id="github" viewBox="0 0 438.55 427.82"><title>github</title><path id="github-body" d="M409.13 109.21a218.32 218.32 0 0 0-79.8-79.8Q278.94 0 219.27 0T109.21 29.41a218.29 218.29 0 0 0-79.8 79.8Q0 159.64 0 219.27q0 71.67 41.83 128.91t108.06 79.23q7.71 1.43 11.42-2a11.17 11.17 0 0 0 3.69-8.57q0-.86-.14-15.42t-.14-25.41l-6.57 1.14a83.77 83.77 0 0 1-15.85 1 120.73 120.73 0 0 1-19.84-2 44.34 44.34 0 0 1-19.11-8.51 36.23 36.23 0 0 1-12.56-17.6l-2.86-6.57a71.34 71.34 0 0 0-9-14.56q-6.14-8-12.42-10.85l-2-1.43a21 21 0 0 1-3.71-3.43 15.66 15.66 0 0 1-2.57-4q-.86-2 1.43-3.29c1.54-.85 4.34-1.27 8.34-1.27l5.71.85q5.71 1.14 14.13 6.85a46.08 46.08 0 0 1 13.85 14.84q6.57 11.71 15.85 17.85t18.7 6.14a81.19 81.19 0 0 0 16.27-1.42 56.78 56.78 0 0 0 12.85-4.29q2.57-19.14 14-29.41a195.49 195.49 0 0 1-29.36-5.13 116.52 116.52 0 0 1-26.83-11.14 76.86 76.86 0 0 1-23-19.13q-9.14-11.42-15-30t-5.8-42.81q0-34.55 22.56-58.82-10.57-26 2-58.24 8.28-2.57 24.55 3.85t23.84 11q7.57 4.56 12.13 7.71a206.2 206.2 0 0 1 109.64 0l10.85-6.85a153.65 153.65 0 0 1 26.26-12.56q15.13-5.71 23.13-3.14 12.84 32.26 2.28 58.24 22.55 24.27 22.56 58.82 0 24.27-5.85 43t-15.12 30a79.82 79.82 0 0 1-23.13 19 116.74 116.74 0 0 1-26.84 11.14 195.29 195.29 0 0 1-29.23 5.07q14.8 12.84 14.81 40.58v60.2a11.37 11.37 0 0 0 3.57 8.56q3.57 3.42 11.28 2 66.24-22 108.07-79.23t41.83-128.91q-.03-59.62-29.43-110.05z"/></symbol><symbol id="glasses" viewBox="0 0 60 24"><title>glasses</title><path id="glasses-body" d="M59 10h-2.18a12 12 0 0 0-23.57-.42 4.85 4.85 0 0 0-6.49 0A12 12 0 0 0 3.05 11H1a1 1 0 0 0 0 2h2.05A12 12 0 0 0 27 12.33a3.8 3.8 0 0 1 3-2 3.8 3.8 0 0 1 3 2A12 12 0 0 0 57 12h2a1 1 0 0 0 0-2zM15.07 22a10 10 0 1 1 0-20 10 10 0 0 1 0 20zm30 0a10 10 0 1 1 0-20 10 10 0 0 1 0 20z"/></symbol><symbol id="icon-search" viewBox="0 0 511.89 512"><title>icon-search</title><path id="search-symbol" d="M507.46 485.89L383.03 361.47a217.43 217.43 0 0 0 53.58-143.16C436.62 97.86 338.64 0 218.31 0S0 98 0 218.31s97.94 218.31 218.31 218.31A217.43 217.43 0 0 0 361.46 383l124.43 124.46a15.43 15.43 0 0 0 10.78 4.54 15 15 0 0 0 10.78-4.54 15.35 15.35 0 0 0 .01-21.57zM30.54 218.31c0-103.54 84.24-187.66 187.66-187.66s187.66 84.24 187.66 187.66-84.13 187.77-187.67 187.77S30.54 321.84 30.54 218.31z"/></symbol><symbol id="instagram" viewBox="0 0 48 47"><title>instagram</title><path id="instagram-square" d="M40.4 5h-4.8A2.6 2.6 0 0 0 33 7.6v4.8a2.6 2.6 0 0 0 2.6 2.6h4.8a2.6 2.6 0 0 0 2.6-2.6V7.6A2.6 2.6 0 0 0 40.4 5zm.6 7.4a.6.6 0 0 1-.6.6h-4.8a.6.6 0 0 1-.6-.6V7.6a.6.6 0 0 1 .6-.6h4.8a.6.6 0 0 1 .6.6z"/><path id="instagram-camera" d="M37.8 0H10.2A10.23 10.23 0 0 0 0 10.23v26.54A10.23 10.23 0 0 0 10.2 47h27.6A10.23 10.23 0 0 0 48 36.77V10.23A10.23 10.23 0 0 0 37.8 0zM46 36.77A8.22 8.22 0 0 1 37.8 45H10.2A8.22 8.22 0 0 1 2 36.77V19h12.22a14 14 0 1 0 19.56 0H46zM36 29a12 12 0 1 1-12-12 12 12 0 0 1 12 12zm-4.83-12a13.87 13.87 0 0 0-14.35 0H2v-6.77A8.22 8.22 0 0 1 10.2 2h27.6a8.22 8.22 0 0 1 8.2 8.23V17z"/><path id="instagram-lens" d="M15 29a9 9 0 1 0 9-9 9 9 0 0 0-9 9zm16 0a7 7 0 1 1-7-7 7 7 0 0 1 7 7z"/></symbol><symbol id="letter" viewBox="0 0 60 60"><path d="M0 8.5v43h60v-43H0zm58 41H2v-39h56v39z"/><path d="M53 15.5H43v10h10v-10zm-2 8h-6v-6h6v6zM8 21.5h20a1 1 0 0 0 0-2H8a1 1 0 0 0 0 2zM8 26.5h20a1 1 0 0 0 0-2H8a1 1 0 0 0 0 2zM8 16.5h8a1 1 0 0 0 0-2H8a1 1 0 0 0 0 2zM23 39.5c0 3.31 2.69 6 6 6s6-2.69 6-6-2.69-6-6-6-6 2.69-6 6zm10 0c0 2.206-1.794 4-4 4s-4-1.794-4-4 1.794-4 4-4 4 1.794 4 4zM37.77 37.14c.683-.825 1.778-.825 2.46 0 .728.877 1.712 1.36 2.77 1.36s2.042-.483 2.77-1.36c.683-.825 1.778-.825 2.46 0 .728.877 1.712 1.36 2.77 1.36s2.042-.483 2.77-1.36a1 1 0 1 0-1.54-1.278c-.682.824-1.777.824-2.46 0-.728-.88-1.712-1.362-2.77-1.362s-2.042.483-2.77 1.36c-.683.825-1.778.825-2.46 0-.728-.877-1.712-1.36-2.77-1.36s-2.042.483-2.77 1.36a1 1 0 1 0 1.54 1.28zM37.77 43.14c.683-.825 1.778-.825 2.46 0 .728.877 1.712 1.36 2.77 1.36s2.042-.483 2.77-1.36c.683-.825 1.778-.825 2.46 0 .728.877 1.712 1.36 2.77 1.36s2.042-.483 2.77-1.36a1 1 0 1 0-1.54-1.278c-.682.824-1.777.824-2.46 0-.728-.88-1.712-1.362-2.77-1.362s-2.042.483-2.77 1.36c-.683.825-1.778.825-2.46 0-.728-.877-1.712-1.36-2.77-1.36s-2.042.483-2.77 1.36a1 1 0 1 0 1.54 1.28z"/></symbol><symbol id="logo" viewBox="0 0 48.37 33.98"><title>logo</title><path d="M44.77 2.46a1.79 1.79 0 0 1 1.08-1.12 8.51 8.51 0 0 1 2.52-.37v-1q-4.71.14-13.92.14c-3.19 0-5.79 0-7.83-.05h-4.06c-2.14 0-5 .07-8.63.07Q4.72.13.01-.01v1a8.51 8.51 0 0 1 2.52.38A1.79 1.79 0 0 1 3.61 2.5a8.49 8.49 0 0 1 .29 2.63v23.75a8.49 8.49 0 0 1-.29 2.63 1.79 1.79 0 0 1-1.08 1.13 8.51 8.51 0 0 1-2.52.38v1q2-.14 6.14-.14 3.89 0 6.09.14v-1a8.51 8.51 0 0 1-2.52-.37 1.79 1.79 0 0 1-1.08-1.12 8.49 8.49 0 0 1-.29-2.62V5.09a8.37 8.37 0 0 1 .29-2.61 1.72 1.72 0 0 1 1.08-1.09 8.13 8.13 0 0 1 2.52-.28h3.52a9.8 9.8 0 0 1 4.56.84 4.86 4.86 0 0 1 2.25 2.7 23.39 23.39 0 0 1 1.07 5.44h1.12a23.39 23.39 0 0 1 1.07-5.44 4.86 4.86 0 0 1 2.25-2.7 9.8 9.8 0 0 1 4.56-.84h3.52a8.13 8.13 0 0 1 2.52.28 1.72 1.72 0 0 1 1.08 1.09 8.37 8.37 0 0 1 .29 2.61v23.79a8.49 8.49 0 0 1-.29 2.63 1.79 1.79 0 0 1-1.08 1.13 8.51 8.51 0 0 1-2.52.38v1q2.2-.14 6.09-.14 4.15 0 6.14.14v-1a8.51 8.51 0 0 1-2.52-.37 1.79 1.79 0 0 1-1.08-1.12 8.49 8.49 0 0 1-.29-2.62V5.09a8.49 8.49 0 0 1 .27-2.63z" fill="#fff"/></symbol><symbol id="petel" viewBox="0 0 17.5 13.19"><title>petel</title><path id="petel-body" d="M0 9.18s3.13-7.62 3.88-7.87 7.25-2 9-1 4.5 3.32 4.63 4.28-2.37 5.34-3.75 6-8 2.75-9.75 2.63S.9 12.16 0 9.18z" fill="#fff"/></symbol><symbol id="plane" viewBox="0 0 60.06 44.99"><title>plane</title><path id="plane-body" d="M59.84.36a1 1 0 0 0-.89-.35h-.22L.74 15.81a1 1 0 0 0 0 1.91l21.22 7L20 39.86a1 1 0 0 0 1.6.92l7.76-5.95 6.81 9.72a1 1 0 0 0 .82.43h.07a1 1 0 0 0 .82-.54L59.95 1.46a1 1 0 0 0-.11-1.1zM52.9 3.7l-30 19.19-18.38-6zm-30.61 34l1.38-11.05 4.56 6.51zm14.58 4.31L24.42 24.27l32.1-20.51z"/></symbol></svg>