<?xml version="1.0" encoding="utf-8"?>
<!-- Generator: Adobe Illustrator 20.0.0, SVG Export Plug-In . SVG Version: 6.00 Build 0)  -->
<svg version="1.1" id="bulb" xmlns="http://www.w3.org/2000/svg" xmlns:xlink="http://www.w3.org/1999/xlink" x="0px" y="0px"
	 width="50px" height="54px" viewBox="0 0 50 54" style="enable-background:new 0 0 50 54;" xml:space="preserve">
<path id="bulb-body" d="M25,8C15.6,8,8,15.6,8,25c0,7.1,4.4,13.4,11,15.9V50c0,0.6,0.4,1,1,1h1v2c0,0.6,0.4,1,1,1h6c0.6,0,1-0.4,1-1
	v-2h1c0.6,0,1-0.4,1-1v-9.1c6.6-2.5,11-8.8,11-15.9C42,15.6,34.4,8,25,8z M28,49c-0.6,0-1,0.4-1,1v2h-4v-2c0-0.6-0.4-1-1-1h-1v-5h8
	v5H28z M29.7,39.2c-0.4,0.1-0.7,0.5-0.7,1V42h-8v-1.8c0-0.4-0.3-0.8-0.7-1C14.1,37.2,10,31.5,10,25c0-8.3,6.7-15,15-15s15,6.7,15,15
	C40,31.5,35.9,37.2,29.7,39.2z"/>
<path d="M25,6c0.6,0,1-0.4,1-1V1c0-0.6-0.4-1-1-1s-1,0.4-1,1v4C24,5.6,24.4,6,25,6z"/>
<path d="M49,24h-4c-0.6,0-1,0.4-1,1s0.4,1,1,1h4c0.6,0,1-0.4,1-1S49.6,24,49,24z"/>
<path d="M5,24H1c-0.6,0-1,0.4-1,1s0.4,1,1,1h4c0.6,0,1-0.4,1-1S5.6,24,5,24z"/>
<path d="M41.3,7.3l-2.8,2.8c-0.4,0.4-0.4,1,0,1.4c0.2,0.2,0.5,0.3,0.7,0.3s0.5-0.1,0.7-0.3l2.8-2.8c0.4-0.4,0.4-1,0-1.4
	S41.7,6.9,41.3,7.3z"/>
<path d="M10.1,38.4l-2.8,2.8c-0.4,0.4-0.4,1,0,1.4C7.5,42.9,7.8,43,8,43s0.5-0.1,0.7-0.3l2.8-2.8c0.4-0.4,0.4-1,0-1.4
	S10.5,38,10.1,38.4z"/>
<path d="M39.8,38.4c-0.4-0.4-1-0.4-1.4,0s-0.4,1,0,1.4l2.8,2.8c0.2,0.2,0.5,0.3,0.7,0.3s0.5-0.1,0.7-0.3c0.4-0.4,0.4-1,0-1.4
	L39.8,38.4z"/>
<path d="M10.1,11.6c0.2,0.2,0.5,0.3,0.7,0.3s0.5-0.1,0.7-0.3c0.4-0.4,0.4-1,0-1.4L8.7,7.3c-0.4-0.4-1-0.4-1.4,0s-0.4,1,0,1.4
	L10.1,11.6z"/>
<path d="M25,13c-6.6,0-12,5.4-12,12c0,0.6,0.4,1,1,1c0.6,0,1-0.4,1-1c0-5.5,4.5-10,10-10c0.6,0,1-0.4,1-1S25.6,13,25,13z"/>
</svg>
