<?xml version="1.0" encoding="utf-8"?>
<!-- Generator: Adobe Illustrator 20.0.0, SVG Export Plug-In . SVG Version: 6.00 Build 0)  -->
<svg version="1.1" id="cloud" xmlns="http://www.w3.org/2000/svg" xmlns:xlink="http://www.w3.org/1999/xlink" x="0px" y="0px"
	 width="60px" height="60px" viewBox="0 0 60 60" style="enable-background:new 0 0 60 60;" xml:space="preserve">
<path id="cloud-body" d="M51,21.2C50.4,12.2,43,5,34.1,5c-5.4,0-10.7,2.7-13.9,7c-0.1,0-0.2-0.1-0.2-0.1c-0.2-0.1-0.4-0.2-0.6-0.3
	c-0.1,0-0.2-0.1-0.4-0.1c-0.2-0.1-0.4-0.1-0.6-0.2c-0.1,0-0.2-0.1-0.4-0.1c-0.2-0.1-0.4-0.1-0.7-0.1c-0.1,0-0.2,0-0.3,0
	c-0.3,0-0.7-0.1-1-0.1c-5,0-9,4-9,9c0,0.1,0,0.3,0,0.4c-4.2,2.3-7,7-7,11.8C0,39.2,5.8,45,12.8,45H18c0.6,0,1-0.4,1-1s-0.4-1-1-1
	h-5.2C6.9,43,2,38.1,2,32.2c0-4.2,2.7-8.5,6.4-10.3L9,21.6V21c0-0.1,0-0.2,0-0.4l0-0.2l0-0.2c0-0.1,0-0.2,0-0.2c0-3.9,3.1-7,7-7
	c0.3,0,0.6,0,0.9,0.1c0.1,0,0.2,0,0.2,0c0.3,0,0.5,0.1,0.8,0.2c0,0,0.1,0,0.1,0c0.3,0.1,0.6,0.2,0.8,0.3c0.1,0,0.1,0.1,0.2,0.1
	c0.2,0.1,0.5,0.2,0.7,0.4c1.9,1.2,3.2,3.4,3.2,5.9c0,0.6,0.4,1,1,1s1-0.4,1-1c0-2.8-1.2-5.2-3.2-6.9C24.7,9.4,29.4,7,34.1,7
	c7.7,0,14.2,6.1,14.8,13.9c-1-0.1-2.6-0.1-4.1,0.1c-0.5,0.1-0.9,0.6-0.8,1.1c0.1,0.5,0.5,0.9,1,0.9c0,0,0.1,0,0.2,0
	c2.2-0.3,4.5,0,4.7,0c4.7,0.9,8.2,5.2,8.2,10c0,5.5-4.5,10-10,10h-4c-0.6,0-1,0.4-1,1s0.4,1,1,1h4c6.6,0,12-5.4,12-12
	C60,27.5,56.2,22.6,51,21.2z"/>
<path id="cloud-arrow" d="M41,43c-0.6,0-1,0.4-1,1c0,5-4,9-9,9s-9-4-9-9s4-9,9-9c3,0,5.7,1.5,7.3,4H32c-0.6,0-1,0.4-1,1s0.4,1,1,1h8
	c0,0,0,0,0,0c0.1,0,0.1,0,0.2,0c0.1,0,0.1,0,0.2,0c0,0,0,0,0,0c0,0,0.1,0,0.1-0.1c0.1,0,0.2-0.1,0.2-0.2c0,0,0.1-0.1,0.1-0.2
	c0-0.1,0.1-0.1,0.1-0.2c0-0.1,0-0.2,0.1-0.3c0,0,0-0.1,0-0.1v0v0v-8c0-0.6-0.4-1-1-1s-1,0.4-1,1v4.6c-2-2.3-4.9-3.6-8-3.6
	c-6.1,0-11,4.9-11,11s4.9,11,11,11s11-4.9,11-11C42,43.4,41.6,43,41,43z"/>
</svg>
