<?xml version="1.0" encoding="utf-8"?>
<!-- Generator: Adobe Illustrator 20.0.0, SVG Export Plug-In . SVG Version: 6.00 Build 0)  -->
<svg version="1.1" id="letter" xmlns="http://www.w3.org/2000/svg" xmlns:xlink="http://www.w3.org/1999/xlink" x="0px" y="0px"
	 width="489.5px" height="300.4px" viewBox="0 0 489.5 300.4" style="enable-background:new 0 0 489.5 300.4;" xml:space="preserve"
	>
<style type="text/css">
	.st0{fill:#3C3C3C;}
</style>
<g id="letter-rect-right">
	<g>
		<rect x="122.4" y="44.5" class="st0" width="16.7" height="94.6"/>
	</g>
</g>
<g id="letter-rect-left">
	<g>
		<rect x="50.1" y="44.5" class="st0" width="16.7" height="94.6"/>
	</g>
</g>
<g id="letter-rect-bottom">
	<g>
		<rect x="50.1" y="127.9" class="st0" width="89" height="16.7"/>
	</g>
</g>
<g id="letter-rect-top">
	<g>
		<rect x="50.1" y="44.5" class="st0" width="89" height="16.7"/>
	</g>
</g>
<g id="letter-wave-top">
	<g>
		<path class="st0" d="M405.1,172.7c-11.5,8.9-18.5,8.9-30.1,0c-17.3-13.3-34.8-13.3-52,0c-12.3,9.5-18.3,8.2-28.9,0
			c-8.6-6.6-16.8-9.9-25.1-10v17.4c4.7,0,9.3,2.2,14.9,6.5c17.5,13.5,31.8,13.5,49.3,0c11.1-8.6,20.6-8.6,31.7,0
			c17.4,13.5,33,13.5,50.4,0c6.4-4.9,10.9-7.1,15.6-6.6v-17.4C422.6,162.2,414.4,165.5,405.1,172.7z"/>
	</g>
</g>
<g id="letter-wave-bottom">
	<g>
		<path class="st0" d="M405.1,222.7c-11.5,8.9-18.5,8.9-30.1,0c-17.3-13.3-34.8-13.3-52,0c-12.3,9.5-18.3,8.2-28.9,0
			c-8.6-6.6-16.8-9.9-25.1-10v17.4c4.7,0,9.3,2.2,14.9,6.5c17.5,13.5,31.8,13.5,49.3,0c11.1-8.6,20.6-8.6,31.7,0
			c17.4,13.5,33,13.5,50.4,0c6.4-4.9,10.9-7.1,15.6-6.6v-17.4C422.6,212.2,414.4,215.5,405.1,222.7z"/>
	</g>
</g>
<g id="letter-top">
	<g>
		<rect x="5.6" y="0" class="st0" width="478.4" height="16.7"/>
	</g>
</g>
<g id="letter-bottom">
	<g>
		<rect x="5.6" y="283.7" class="st0" width="478.4" height="16.7"/>
	</g>
</g>
<g id="letter-left">
	<g>
		<rect y="0" class="st0" width="16.7" height="300.4"/>
	</g>
</g>
<g id="letter-right">
	<g>
		<rect x="472.8" y="0" class="st0" width="16.7" height="300.4"/>
	</g>
</g>
</svg>
