<?xml version="1.0" encoding="utf-8"?>
<!-- Generator: Adobe Illustrator 20.0.0, SVG Export Plug-In . SVG Version: 6.00 Build 0)  -->
<svg version="1.1" id="logo" xmlns="http://www.w3.org/2000/svg" xmlns:xlink="http://www.w3.org/1999/xlink" x="0px" y="0px"
	 width="141px" height="151px" viewBox="0 0 141 151" style="enable-background:new 0 0 141 151;" xml:space="preserve">
<style type="text/css">
	.st0{fill:#FFFFFF;}
</style>
<g id="logo-magellan">
	<g>
		<path class="st0" d="M20.6,104.3c-1,0-1.2,0.2-1.2,1.3v7.4c0,1.1,0.2,1.2,1.2,1.3v0.3c-0.5,0-1.2,0-1.9,0c-0.8,0-1.5,0-1.9,0v-0.3
			c1,0,1.2-0.2,1.2-1.3v-8l-3.6,9.7h-0.2l-3.8-9.7v7.9c0,1.1,0.2,1.4,1.4,1.4v0.3c-0.4,0-1,0-1.5,0c-0.5,0-1.1,0-1.4,0v-0.3
			c1,0,1.2-0.3,1.2-1.4v-7.3c0-1.1-0.2-1.2-1.2-1.3V104c0.3,0,0.9,0,1.4,0c0.4,0,1,0,1.3,0l3.3,8.7L18,104h0.7c0.7,0,1.4,0,1.9,0
			L20.6,104.3L20.6,104.3z"/>
		<path class="st0" d="M36.2,113.3c0.3,0.8,0.7,0.9,1,1v0.3c-0.4,0-1,0-1.6,0c-0.8,0-1.5,0-1.9,0v-0.3c0.7,0,1.1-0.1,1.1-0.6
			c0-0.2-0.1-0.4-0.2-0.7l-0.9-2.5H30l-0.6,1.6c-0.2,0.5-0.3,0.9-0.3,1.2c0,0.7,0.4,0.9,1.3,0.9v0.3c-0.6,0-1.2,0-1.7,0
			c-0.5,0-0.8,0-1.1,0v-0.3c0.4-0.1,0.8-0.4,1.2-1.3l3.5-9.1h0.2L36.2,113.3z M31.8,105.8l-1.7,4.5h3.4L31.8,105.8z"/>
		<path class="st0" d="M51.7,104.7c0.1,0.1,0.2,0.2,0.3,0.2c0.2,0,0.3-0.3,0.4-0.9h0.3c0,0.7-0.1,1.7-0.1,3.4h-0.3
			c-0.1-0.8-0.3-1.6-0.8-2.2C51,104.5,50,104,49,104c-2,0-3.3,2-3.3,5.3c0,3.6,1.1,5.2,3.6,5.2c0.7,0,1.3-0.3,1.6-0.5
			c0.4-0.3,0.4-0.4,0.4-0.8v-1.4c0-1.2-0.3-1.4-1.5-1.4V110c0.5,0,1.4,0.1,2.1,0.1c0.7,0,1.2,0,1.6-0.1v0.3
			c-0.7,0.1-0.8,0.2-0.8,1.3v3h-0.3c0-0.3-0.2-0.9-0.4-0.9c-0.1,0-0.2,0-0.5,0.3c-0.7,0.5-1.4,0.8-2.3,0.8c-3.1,0-4.9-2-4.9-5.3
			c0-3.5,2-5.7,4.8-5.7C50.3,103.7,51,104.2,51.7,104.7z"/>
		<path class="st0" d="M68.8,114.6c-1,0-2.4,0-3.4,0c-0.9,0-2.9,0-4.4,0v-0.3c1,0,1.2-0.2,1.2-1.3v-7.4c0-1.1-0.2-1.2-1.2-1.3V104
			c1.5,0,3.5,0,4.4,0c0.9,0,2.2,0,3.1,0c-0.1,0.7-0.1,1.4-0.1,1.8c0,0.4,0,0.7,0,0.9h-0.3c-0.2-1.8-0.4-2.4-2-2.4h-1.2
			c-1,0-1.2,0.2-1.2,1.2v3.5h1c1.3,0,1.3-1.3,1.4-2h0.3c0,0.6-0.1,1.1-0.1,1.4c0,0.3,0,0.5,0,0.7c0,0.5,0,1,0.1,2.1H66
			c-0.1-1-0.1-2-1.4-2h-1v3.6c0,1.1,0.2,1.2,1.2,1.2h1.1c1.9,0,2.3-0.7,2.5-2.7h0.3c0,0.3,0,0.7,0,1.1
			C68.7,113,68.7,113.8,68.8,114.6z"/>
		<path class="st0" d="M80.3,104.3c-1,0-1.2,0.2-1.2,1.3v7.4c0,1.1,0.2,1.2,1.2,1.2h1.1c1.9,0,2.3-0.7,2.5-2.8h0.3
			c0,0.3,0,0.7,0,1.2c0,0.4,0,1.2,0.1,1.9c-1,0-2.4,0-3.4,0c-0.9,0-2.9,0-4.4,0v-0.3c1,0,1.2-0.2,1.2-1.3v-7.4
			c0-1.1-0.2-1.2-1.2-1.3V104c0.4,0,1.1,0,1.9,0c0.7,0,1.4,0,1.9,0L80.3,104.3L80.3,104.3z"/>
		<path class="st0" d="M95.6,104.3c-1,0-1.2,0.2-1.2,1.3v7.4c0,1.1,0.2,1.2,1.2,1.2h1.1c1.9,0,2.3-0.7,2.5-2.8h0.3
			c0,0.3,0,0.7,0,1.2c0,0.4,0,1.2,0.1,1.9c-1,0-2.4,0-3.4,0c-0.9,0-2.9,0-4.4,0v-0.3c1,0,1.2-0.2,1.2-1.3v-7.4
			c0-1.1-0.2-1.2-1.2-1.3V104c0.4,0,1.1,0,1.9,0c0.7,0,1.4,0,1.9,0C95.6,104,95.6,104.3,95.6,104.3z"/>
		<path class="st0" d="M114.9,113.3c0.3,0.8,0.7,0.9,1,1v0.3c-0.4,0-1,0-1.6,0c-0.8,0-1.5,0-1.9,0v-0.3c0.7,0,1.1-0.1,1.1-0.6
			c0-0.2-0.1-0.4-0.2-0.7l-0.9-2.5h-3.6l-0.6,1.6c-0.2,0.5-0.3,0.9-0.3,1.2c0,0.7,0.4,0.9,1.3,0.9v0.3c-0.6,0-1.2,0-1.7,0
			c-0.5,0-0.8,0-1.1,0v-0.3c0.4-0.1,0.8-0.4,1.2-1.3l3.5-9.1h0.2L114.9,113.3z M110.6,105.8l-1.7,4.5h3.4L110.6,105.8z"/>
		<path class="st0" d="M132,104.3c-1,0-1.2,0.3-1.2,1.4v9h-0.3l-6.3-9.7v7.9c0,1.1,0.2,1.4,1.4,1.4v0.3c-0.4,0-1,0-1.5,0
			c-0.5,0-1.1,0-1.4,0v-0.3c1,0,1.2-0.3,1.2-1.4v-7.3c0-1.1-0.2-1.2-1.2-1.3V104c0.3,0,0.9,0,1.4,0c0.4,0,0.8,0,1.2,0l5.3,8.2v-6.4
			c0-1.1-0.2-1.4-1.4-1.4V104c0.4,0,1,0,1.5,0c0.5,0,1.1,0,1.4,0L132,104.3L132,104.3z"/>
	</g>
</g>
<g id="logo-media">
	<g>
		<path class="st0" d="M52.8,130.7c-0.7,0-0.9,0.1-0.9,0.9v5.5c0,0.8,0.1,0.9,0.9,0.9v0.2c-0.3,0-0.9,0-1.4,0c-0.6,0-1.1,0-1.4,0
			v-0.2c0.7,0,0.9-0.1,0.9-0.9v-5.9l-2.7,7.1h-0.2l-2.8-7.1v5.8c0,0.8,0.1,1,1,1.1v0.2c-0.3,0-0.7,0-1.1,0c-0.4,0-0.8,0-1,0v-0.2
			c0.7,0,0.9-0.3,0.9-1.1v-5.3c0-0.8-0.1-0.9-0.9-0.9v-0.2c0.2,0,0.7,0,1,0c0.3,0,0.7,0,0.9,0l2.4,6.4l2.4-6.3h0.5
			c0.5,0,1.1,0,1.4,0V130.7z"/>
		<path class="st0" d="M64.2,138.3c-0.7,0-1.8,0-2.5,0c-0.7,0-2.1,0-3.2,0v-0.2c0.7,0,0.9-0.1,0.9-0.9v-5.5c0-0.8-0.1-0.9-0.9-0.9
			v-0.2c1.1,0,2.5,0,3.2,0c0.7,0,1.6,0,2.3,0c-0.1,0.5-0.1,1-0.1,1.3c0,0.3,0,0.5,0,0.7h-0.3c-0.1-1.3-0.3-1.7-1.5-1.7h-0.9
			c-0.7,0-0.9,0.1-0.9,0.9v2.6h0.7c1,0,0.9-0.9,1-1.5h0.3c0,0.5,0,0.8,0,1c0,0.2,0,0.4,0,0.5c0,0.4,0,0.7,0.1,1.6h-0.3
			c-0.1-0.7-0.1-1.5-1.1-1.5h-0.7v2.6c0,0.8,0.1,0.9,0.9,0.9h0.8c1.4,0,1.7-0.5,1.8-1.9h0.3c0,0.2,0,0.5,0,0.8
			C64.1,137.1,64.1,137.7,64.2,138.3z"/>
		<path class="st0" d="M76.8,134.3c0,2.4-1.5,4-4,4c-0.3,0-1.1,0-1.5,0c-0.5,0-1.1,0-1.4,0v-0.2c0.7,0,0.9-0.1,0.9-0.9v-5.5
			c0-0.8-0.1-0.9-0.9-0.9v-0.2c0.3,0,0.7,0,1.1,0c0.1,0,0.2,0,0.3,0c0.5,0,1.2,0,1.7,0C75.5,130.5,76.8,131.8,76.8,134.3z
			 M71.8,131.6v5.5c0,0.8,0.1,0.9,0.8,0.9c2.4,0,3.1-1.3,3.1-3.7c0-2.5-0.8-3.7-3.1-3.7C71.9,130.7,71.8,130.9,71.8,131.6z"/>
		<path class="st0" d="M85.2,130.7c-0.7,0-0.9,0.1-0.9,0.9v5.5c0,0.8,0.1,0.9,0.9,0.9v0.2c-0.3,0-0.9,0-1.4,0c-0.6,0-1.1,0-1.4,0
			v-0.2c0.7,0,0.9-0.1,0.9-0.9v-5.5c0-0.8-0.1-0.9-0.9-0.9v-0.2c0.3,0,0.8,0,1.4,0c0.5,0,1.1,0,1.4,0V130.7z"/>
		<path class="st0" d="M96.7,137.4c0.2,0.6,0.5,0.7,0.8,0.7v0.2c-0.3,0-0.8,0-1.2,0c-0.6,0-1.1,0-1.4,0v-0.2c0.5,0,0.8-0.1,0.8-0.4
			c0-0.1,0-0.3-0.1-0.5l-0.7-1.8h-2.7l-0.5,1.2c-0.2,0.4-0.2,0.7-0.2,0.9c0,0.5,0.3,0.6,1,0.7v0.2c-0.4,0-0.9,0-1.3,0
			c-0.4,0-0.6,0-0.8,0v-0.2c0.3-0.1,0.6-0.3,0.9-1l2.6-6.7H94L96.7,137.4z M93.5,131.8l-1.3,3.3h2.5L93.5,131.8z"/>
	</g>
</g>
<g id="logo-body">
	<g>
		<path class="st0" d="M120,77.3c-6.6-0.3-7.9-1.2-7.9-8.1V22.5c0-6.9,1.3-7.8,7.9-8.1l-0.3-1.5c-8.7,0-22.1,0-27.9,0
			c-6.5,0-16.3,0-22.6,0c0,0,0,0,0,0c-5.9,0-14.5,0-20.3,0c-5.9,0-19.1,0-28,0l-0.3,1.6c6.6,0.3,7.9,1.2,7.9,8.1v46.7
			c0,6.9-1.3,7.8-7.9,8.1l-0.5,1.7c2.7,0,7.8,0,12.8,0c4.5,0,9.8,0,12.8,0l-0.3-1.7c-6.6-0.3-7.9-1.2-7.9-8.1V22.6
			c0-6.9,1.3-7.8,7.9-7.8h7.1c12.2,0,14.4,4.2,15.8,17.3h1.5h0.8h1.5c1.4-13.1,3.6-17.4,15.8-17.4h7.1c6.6,0,7.9,1,7.9,7.8v46.7
			c0,6.9-1.3,7.8-7.9,8.1l-0.3,1.8c3,0,8.3,0,12.8,0c5,0,10.1,0,12.8,0L120,77.3z"/>
	</g>
</g>
</svg>
