<svg xmlns="http://www.w3.org/2000/svg" viewBox="0 0 50 54"><title>bulb</title><path d="M25 8a17 17 0 0 0-6 32.9V50a1 1 0 0 0 1 1h1v2a1 1 0 0 0 1 1h6a1 1 0 0 0 1-1v-2h1a1 1 0 0 0 1-1v-9.1A17 17 0 0 0 25 8zm3 41a1 1 0 0 0-1 1v2h-4v-2a1 1 0 0 0-1-1h-1v-5h8v5zm1.69-9.76a1 1 0 0 0-.69 1V42h-8v-1.81a1 1 0 0 0-.69-1 15 15 0 1 1 9.38 0zM25 6a1 1 0 0 0 1-1V1a1 1 0 0 0-2 0v4a1 1 0 0 0 1 1zM49 24h-4a1 1 0 0 0 0 2h4a1 1 0 0 0 0-2zM5 24H1a1 1 0 0 0 0 2h4a1 1 0 0 0 0-2zM41.26 7.32l-2.83 2.83a1 1 0 1 0 1.41 1.41l2.83-2.83a1 1 0 1 0-1.41-1.41zM10.15 38.44l-2.83 2.82a1 1 0 1 0 1.41 1.41l2.83-2.83a1 1 0 0 0-1.41-1.41z"/><path d="M39.85 38.44a1 1 0 1 0-1.41 1.41l2.83 2.83a1 1 0 0 0 1.41-1.41zM10.15 11.56a1 1 0 0 0 1.41-1.41L8.74 7.32a1 1 0 1 0-1.42 1.42zM25 13a12 12 0 0 0-12 12 1 1 0 0 0 2 0 10 10 0 0 1 10-10 1 1 0 0 0 0-2z"/></svg>