<svg xmlns="http://www.w3.org/2000/svg" viewBox="0 0 60 50"><title>cloud</title><path d="M51 16.19A17.12 17.12 0 0 0 34.08 0a17.63 17.63 0 0 0-13.95 7l-.23-.1-.6-.27-.3-.12-.6-.19-.4-.09c-.22-.05-.44-.09-.67-.12h-.32A8.81 8.81 0 0 0 16 6a9 9 0 0 0-9 9v.38a13.83 13.83 0 0 0-7 11.77A12.86 12.86 0 0 0 12.85 40H18a1 1 0 0 0 0-2h-5.16A10.86 10.86 0 0 1 2 27.15 11.89 11.89 0 0 1 8.43 16.9l.57-.27V16v-.74-.25a7 7 0 0 1 7.92-6.93h.23a7 7 0 0 1 .79.18h.11a7 7 0 0 1 .83.32l.21.1a6.91 6.91 0 0 1 .7.4A7 7 0 0 1 23 15a1 1 0 1 0 2 0 9 9 0 0 0-3.2-6.87A15.84 15.84 0 0 1 34.08 2a15.1 15.1 0 0 1 14.85 13.89 19.1 19.1 0 0 0-4.08.12A1 1 0 0 0 45 18h.15a18.44 18.44 0 0 1 4.68 0A10.25 10.25 0 0 1 58 28a10 10 0 0 1-10 10h-4a1 1 0 0 0 0 2h4a12 12 0 0 0 12-12 12.31 12.31 0 0 0-9-11.81z"/><path d="M41 38a1 1 0 0 0-1 1 9 9 0 1 1-9-9 8.67 8.67 0 0 1 7.31 4H32a1 1 0 0 0 0 2h8a1 1 0 0 0 .21 0 1.08 1.08 0 0 0 .18 0l.09-.06a.63.63 0 0 0 .33-.31 1 1 0 0 0 .1-.17 1 1 0 0 0 .05-.26A1.09 1.09 0 0 0 41 35v-8a1 1 0 0 0-2 0v4.6a10.6 10.6 0 0 0-8-3.6 11 11 0 1 0 11 11 1 1 0 0 0-1-1z"/></svg>