<svg xmlns="http://www.w3.org/2000/svg" viewBox="0 0 489.52 300.39"><title>letter</title><path fill="#3c3c3c" d="M122.38 44.5h16.69v94.57h-16.69zM50.06 44.5h16.69v94.57H50.06z"/><path fill="#3c3c3c" d="M50.06 127.94h89v16.69h-89zM50.06 44.5h89v16.69h-89zM405.12 172.66c-11.52 8.9-18.54 8.9-30.06 0-17.28-13.34-34.78-13.34-52 0-12.29 9.49-18.27 8.25-28.95 0-8.55-6.61-16.81-9.93-25.08-10v17.44c4.67 0 9.35 2.2 14.92 6.51 17.49 13.51 31.76 13.51 49.26 0 11.12-8.59 20.61-8.59 31.73 0 17.42 13.45 33 13.45 50.37 0 6.41-4.95 10.89-7.14 15.59-6.59v-17.43c-8.3-.43-16.5 2.9-25.78 10.07zM405.12 222.67c-11.52 8.9-18.54 8.9-30.06 0-17.28-13.34-34.78-13.34-52 0-12.29 9.49-18.27 8.25-28.95 0-8.55-6.61-16.81-9.93-25.08-10v17.43c4.67 0 9.35 2.2 14.92 6.51 17.49 13.51 31.76 13.51 49.26 0 11.12-8.59 20.61-8.59 31.73 0 17.42 13.45 33 13.45 50.37 0 6.41-4.95 10.89-7.14 15.59-6.59V212.6c-8.3-.44-16.5 2.9-25.78 10.07zM5.56 0h478.4v16.69H5.56zM5.56 283.7h478.4v16.69H5.56z"/><path fill="#3c3c3c" d="M0 0h16.69v300.39H0zM472.84 0h16.69v300.39h-16.69z"/></svg>