<svg xmlns="http://www.w3.org/2000/svg" viewBox="0 0 123.23 125.46"><title>logo-klein</title><g fill="#fff"><path d="M11.84 91.39c-1 0-1.22.2-1.22 1.29v7.45c0 1.09.2 1.24 1.22 1.29v.3H8.01v-.3c1 0 1.21-.2 1.21-1.29v-8l-3.62 9.69h-.24l-3.79-9.73v7.92c0 1.1.2 1.4 1.37 1.44v.3H.02v-.3c1 0 1.22-.34 1.22-1.44v-7.29c0-1.09-.2-1.25-1.22-1.29v-.3h2.67l3.3 8.7 3.25-8.7h2.62v.3zM27.39 100.45c.3.76.73.94 1 1v.3H24.86v-.3c.73 0 1.06-.14 1.06-.56a2.05 2.05 0 0 0-.18-.7l-.92-2.46h-3.58l-.62 1.59a3.54 3.54 0 0 0-.3 1.23c0 .65.45.88 1.31.9v.3H19.9a11.07 11.07 0 0 0-1.12 0v-.3c.39-.09.84-.4 1.18-1.3l3.54-9.09h.24zm-4.32-7.54l-1.72 4.47h3.41zM42.95 91.85a.51.51 0 0 0 .3.15c.19 0 .32-.29.37-.92h.35c0 .73-.06 1.71-.06 3.45h-.35a4.64 4.64 0 0 0-.76-2.22 3.38 3.38 0 0 0-2.56-1.18c-2 0-3.31 2-3.31 5.27 0 3.6 1.13 5.21 3.58 5.21a2.75 2.75 0 0 0 1.56-.47.81.81 0 0 0 .43-.82v-1.44c0-1.22-.26-1.39-1.52-1.44v-.31c.53 0 1.45.05 2.12.05s1.2 0 1.56-.05v.3c-.66.05-.76.18-.76 1.29v3h-.3c0-.34-.15-.86-.41-.86s-.19 0-.49.26a3.69 3.69 0 0 1-2.35.81c-3.11 0-4.92-2-4.92-5.34 0-3.5 2-5.71 4.84-5.71a4.17 4.17 0 0 1 2.68.97zM60 101.71H52.2v-.3c1 0 1.22-.2 1.22-1.29v-7.44c0-1.09-.2-1.25-1.22-1.29v-.26h7.5c-.07.7-.1 1.43-.1 1.77a8.08 8.08 0 0 0 0 .93h-.34c-.2-1.77-.43-2.36-2-2.36h-1.23c-1 0-1.22.15-1.22 1.25v3.54h1c1.31 0 1.28-1.26 1.39-2h.34c0 .64-.05 1.07-.05 1.41v.72c0 .49 0 1 .09 2.13h-.34c-.12-1-.13-2-1.44-2h-1v3.61c0 1.09.2 1.24 1.22 1.24h1.1c1.88 0 2.25-.67 2.47-2.66h.35v1.08c0 .41-.02 1.16.06 1.92zM71.58 91.39c-1 0-1.22.2-1.22 1.29v7.45c0 1.09.2 1.24 1.22 1.24h1.1c1.88 0 2.25-.72 2.47-2.8h.34v1.23c0 .48 0 1.16.1 1.92H67.79v-.3c1 0 1.22-.2 1.22-1.29v-7.44c0-1.09-.2-1.25-1.22-1.29v-.27h3.83v.3zM86.82 91.39c-1 0-1.22.2-1.22 1.29v7.45c0 1.09.2 1.24 1.22 1.24h1.1c1.88 0 2.25-.72 2.47-2.8h.34v1.23c0 .48 0 1.16.1 1.92H83.03v-.3c1 0 1.22-.2 1.22-1.29v-7.44c0-1.09-.2-1.25-1.22-1.29v-.27h3.83zM106.12 100.45c.3.76.73.94 1 1v.3h-3.54v-.3c.73 0 1.06-.14 1.06-.56a2.06 2.06 0 0 0-.18-.7l-.92-2.46h-3.63l-.62 1.59a3.52 3.52 0 0 0-.3 1.23c0 .65.45.88 1.31.9v.3h-1.73a11.07 11.07 0 0 0-1.12 0v-.3c.39-.09.84-.4 1.18-1.3l3.54-9.09h.24zm-4.32-7.54l-1.72 4.47h3.41zM123.24 91.39c-1 0-1.22.34-1.22 1.44v9h-.34l-6.31-9.73v7.92c0 1.1.2 1.4 1.37 1.44v.3h-2.92v-.3c1 0 1.22-.34 1.22-1.44v-7.29c0-1.09-.2-1.25-1.22-1.29v-.31H116.38l5.31 8.16v-6.46c0-1.1-.19-1.4-1.37-1.44v-.26h2.92v.3z"/></g><g fill="#fff"><path d="M44.09 117.84c-.75 0-.89.14-.89.95v5.46c0 .8.15.91.89.95v.22H41.28v-.22c.75 0 .89-.15.89-.95v-5.89l-2.66 7.11h-.18l-2.78-7.14v5.8c0 .81.15 1 1 1.06v.22h-2.13v-.22c.75 0 .89-.25.89-1.06v-5.34c0-.8-.15-.91-.89-.95v-.22h1.94l2.42 6.38 2.37-6.35h1.92zM55.43 125.41H49.7v-.22c.75 0 .89-.15.89-.95v-5.46c0-.8-.15-.91-.89-.95v-.22h5.51c-.05.52-.08 1-.08 1.3a5.93 5.93 0 0 0 0 .68h-.25c-.15-1.3-.31-1.73-1.48-1.73h-.92c-.75 0-.89.11-.89.91v2.59h.73c1 0 .94-.92 1-1.45h.25v1.53c0 .36 0 .72.06 1.56h-.25c-.09-.7-.1-1.46-1.06-1.46h-.73v2.64c0 .8.15.91.89.91h.81c1.38 0 1.65-.49 1.81-1.95h.25v.79c0 .3.02.92.08 1.48zM68.01 121.43a3.69 3.69 0 0 1-4 4h-2.92v-.22c.75 0 .89-.15.89-.95v-5.46c0-.8-.15-.91-.89-.95v-.22h3.01c2.65-.01 3.91 1.34 3.91 3.8zm-5-2.66v5.5c0 .77.15.95.83.95 2.4 0 3.05-1.34 3.05-3.74s-.78-3.65-3.06-3.65c-.66-.01-.81.18-.81.93zM76.49 117.84c-.75 0-.89.14-.89.95v5.46c0 .8.15.91.89.95v.22H73.68v-.22c.75 0 .89-.15.89-.95v-5.46c0-.8-.15-.91-.89-.95v-.22H76.49zM87.89 124.48c.22.56.53.69.76.7v.22H86.05v-.22c.53 0 .78-.1.78-.41a1.51 1.51 0 0 0-.13-.52l-.68-1.8h-2.65l-.45 1.17a2.58 2.58 0 0 0-.22.9c0 .48.33.64 1 .66v.22h-1.27a8.13 8.13 0 0 0-.82 0v-.22c.29-.06.61-.3.87-1l2.6-6.67h.16zm-3.17-5.53l-1.27 3.28h2.5z"/></g><path d="M111.24 64.48c-6.62-.28-7.91-1.24-7.91-8.1V9.63c0-6.86 1.29-7.82 7.91-8.1l-.29-1.52H12.14l-.29 1.59c6.62.28 7.91 1.24 7.91 8.1v46.76c0 6.86-1.29 7.82-7.91 8.1l-.47 1.72h25.66l-.32-1.72c-6.62-.28-7.91-1.24-7.91-8.1V9.71c0-6.86 1.29-7.82 7.91-7.82h7.14c12.19 0 14.38 4.16 15.81 17.24h3.77c1.38-13.08 3.62-17.32 15.8-17.32h7.14c6.62 0 7.91 1 7.91 7.82v46.75c0 6.86-1.29 7.82-7.91 8.1l-.32 1.8h25.66z" fill="#fff"/></svg>