<svg xmlns="http://www.w3.org/2000/svg" viewBox="0 0 55.25 55.25"><title>pen</title><path d="M52.62 2.63a9 9 0 0 0-12.73 0L3.83 38.69v.06l-.06.08a1 1 0 0 0-.12.24v.08L0 54a1 1 0 0 0 0 .2 1 1 0 0 0 .06.33v.07a1 1 0 0 0 .2.3 1 1 0 0 0 .33.22 1 1 0 0 0 .38.08h.23l14.85-3.53h.18a1 1 0 0 0 .2-.12l.07-.05 36.12-36.14a9 9 0 0 0 0-12.73zM51.2 4a7 7 0 0 1 .65 9.14l-9.78-9.75A7 7 0 0 1 51.2 4zm-4.95 14.89L36.35 9l1.41-1.41 9.9 9.9zM5 50.29a1 1 0 0 0-1.41 0l-.8.71 2.55-10.68 4.42-.49-.56 5.12a1 1 0 0 0 0 .11 1 1 0 0 0 0 .11v.09a1 1 0 0 0 .05.17 1 1 0 0 0 .1.18l.1.13a1 1 0 0 0 .16.13l.14.08.25.05h.33l5.12-.57-.49 4.42L4.2 52.46l.8-.76a1 1 0 0 0 0-1.41zm12.55-5.48l22.34-22.38A1.008 1.008 0 0 0 38.47 21L16.1 43.39l-4.77.53.53-4.77 22.37-22.38a1 1 0 0 0-1.41-1.41L10.44 37.74l-3.18.35 27.68-27.68 9.9 9.9L17.16 48zm31.53-28.74l-9.9-9.9 1.42-1.42 9.9 9.9z"/></svg>