<svg id="bulb" xmlns="http://www.w3.org/2000/svg" viewBox="0 0 50 54">
  <title>bulb</title>
  <path id="bulb-body" d="M25,8a17,17,0,0,0-6,32.9V50a1,1,0,0,0,1,1h1v2a1,1,0,0,0,1,1h6a1,1,0,0,0,1-1V51h1a1,1,0,0,0,1-1V40.9A17,17,0,0,0,25,8Zm3,41a1,1,0,0,0-1,1v2H23V50a1,1,0,0,0-1-1H21V44h8v5Zm1.69-9.76a1,1,0,0,0-.69,1V42H21V40.19a1,1,0,0,0-.69-1,15,15,0,1,1,9.38,0Z"/>
  <path d="M25,6a1,1,0,0,0,1-1V1a1,1,0,0,0-2,0V5A1,1,0,0,0,25,6Z"/>
  <path d="M49,24H45a1,1,0,0,0,0,2h4a1,1,0,0,0,0-2Z"/>
  <path d="M5,24H1a1,1,0,0,0,0,2H5a1,1,0,0,0,0-2Z"/>
  <path d="M41.26,7.32l-2.83,2.83a1,1,0,1,0,1.41,1.41l2.83-2.83a1,1,0,1,0-1.41-1.41Z"/>
  <path d="M10.15,38.44,7.32,41.26a1,1,0,1,0,1.41,1.41l2.83-2.83a1,1,0,0,0-1.41-1.41Z"/>
  <path d="M39.85,38.44a1,1,0,1,0-1.41,1.41l2.83,2.83a1,1,0,0,0,1.41-1.41Z"/>
  <path d="M10.15,11.56a1,1,0,0,0,1.41-1.41L8.74,7.32A1,1,0,1,0,7.32,8.74Z"/>
  <path d="M25,13A12,12,0,0,0,13,25a1,1,0,0,0,2,0A10,10,0,0,1,25,15a1,1,0,0,0,0-2Z"/>
</svg>
