<svg id="cloud" xmlns="http://www.w3.org/2000/svg" viewBox="0 0 60 50">
  <title>cloud</title>
  <path id="cloud-body" d="M51,21.19A17.12,17.12,0,0,0,34.08,5a17.63,17.63,0,0,0-13.95,7l-.23-.1-.6-.27L19,11.51l-.6-.19L18,11.23c-.22-.05-.44-.09-.67-.12l-.32,0A8.81,8.81,0,0,0,16,11a9,9,0,0,0-9,9c0,.13,0,.25,0,.38A13.83,13.83,0,0,0,0,32.15,12.86,12.86,0,0,0,12.85,45H18a1,1,0,0,0,0-2H12.84A10.86,10.86,0,0,1,2,32.15,11.89,11.89,0,0,1,8.43,21.9L9,21.63V21c0-.12,0-.25,0-.37v-.37c0-.08,0-.17,0-.25a7,7,0,0,1,7.92-6.93l.23,0a7,7,0,0,1,.79.18l.11,0a7,7,0,0,1,.83.32l.21.1a6.91,6.91,0,0,1,.7.4A7,7,0,0,1,23,20a1,1,0,1,0,2,0,9,9,0,0,0-3.2-6.87A15.84,15.84,0,0,1,34.08,7,15.1,15.1,0,0,1,48.93,20.89a19.1,19.1,0,0,0-4.08.12A1,1,0,0,0,45,23h.15a18.44,18.44,0,0,1,4.68,0A10.25,10.25,0,0,1,58,33,10,10,0,0,1,48,43H44a1,1,0,0,0,0,2h4A12,12,0,0,0,60,33,12.31,12.31,0,0,0,51,21.19Z" transform="translate(0 -5)"/>
  <path id="cloud-arrow" d="M41,43a1,1,0,0,0-1,1,9,9,0,1,1-9-9,8.67,8.67,0,0,1,7.31,4H32a1,1,0,0,0,0,2h8a1,1,0,0,0,.21,0,1.08,1.08,0,0,0,.18,0h0l.09-.06a.63.63,0,0,0,.33-.31,1,1,0,0,0,.1-.17,1,1,0,0,0,.05-.26A1.09,1.09,0,0,0,41,40h0V32a1,1,0,0,0-2,0v4.6A10.6,10.6,0,0,0,31,33,11,11,0,1,0,42,44,1,1,0,0,0,41,43Z" transform="translate(0 -5)"/>
</svg>
