<svg id="dribbble" xmlns="http://www.w3.org/2000/svg" viewBox="0 0 438.53 438.53">
  <title>dribbble</title>
  <path id="dribbble-body" d="M409.13,109.2a218.35,218.35,0,0,0-79.8-79.8Q278.94,0,219.27,0T109.21,29.41a218.29,218.29,0,0,0-79.8,79.8Q0,159.6,0,219.27T29.41,329.33a218.35,218.35,0,0,0,79.8,79.8q50.4,29.41,110.06,29.41t110.07-29.41a218.29,218.29,0,0,0,79.8-79.8q29.4-50.39,29.4-110.06T409.13,109.2ZM219.27,32q70.8,0,123.62,46.82l-3.57,5q-2.14,3-10.7,11.57a183.51,183.51,0,0,1-18.7,16.27,250.48,250.48,0,0,1-27.55,17.56,265,265,0,0,1-37.12,17.28Q212.42,85.93,175,37.4A188.88,188.88,0,0,1,219.27,32ZM72.52,103.06A184.76,184.76,0,0,1,139.33,50Q174.73,97.07,209,157.88A677.32,677.32,0,0,1,36,180.72,185.11,185.11,0,0,1,72.52,103.06Zm-28,183.73A183.71,183.71,0,0,1,32,219.27a46.52,46.52,0,0,1,.29-6q103.36,0,192.15-26.55,9.14,17.7,15.13,31.69a23.09,23.09,0,0,1-3.71,1.28c-1.72.48-3,.81-3.72,1l-10.56,3.71q-10.85,4-28.41,13.7t-37.26,23.13q-19.7,13.42-40.68,35.55a239.31,239.31,0,0,0-35.26,47.53A187.5,187.5,0,0,1,44.54,286.79ZM219.27,406.56q-66.81,0-119.34-42.83l4.28,3.14q10-22,29.41-42.26t37.4-32.7a368.56,368.56,0,0,1,39.12-23.41q21.13-11,28.83-14t12.28-4.72l.57-.29h.57q28,73.37,40,142.18A187.2,187.2,0,0,1,219.27,406.56Zm157.61-86.08a187.1,187.1,0,0,1-52.82,54.1,804.41,804.41,0,0,0-36.55-133.9q56.82-8.86,116.77,8.27A184.77,184.77,0,0,1,376.88,320.48ZM403.71,216.7q-2.85-.57-7.14-1.28l-10.42-1.71q-6.13-1-13.7-1.85t-16.14-1.57q-8.56-.72-18.27-1.14t-19.7-.43q-10,0-21,.57t-21.27,2a33.82,33.82,0,0,1-2.14-4.71c-.86-2.19-1.48-3.85-1.85-5q-5.43-12-12.57-27.12A293,293,0,0,0,297.08,156a291.8,291.8,0,0,0,28.54-18.56,237.32,237.32,0,0,0,20.27-17.28,164.78,164.78,0,0,0,12.42-12.7q2.86-3.58,5.42-7l.29-.29Q405.71,151,406.56,217.27Z" transform="translate(0 0)"/>
</svg>
