<svg id="letter" xmlns="http://www.w3.org/2000/svg" viewBox="0 0 489.52 300.39">
  <title>letter</title>
  <g id="letter-rect-right">
    <rect x="122.38" y="44.5" width="16.69" height="94.57" fill="#3c3c3c"/>
  </g>
  <g id="letter-rect-left">
    <rect x="50.06" y="44.5" width="16.69" height="94.57" fill="#3c3c3c"/>
  </g>
  <g id="letter-rect-bottom">
    <rect x="50.06" y="127.94" width="89" height="16.69" fill="#3c3c3c"/>
  </g>
  <g id="letter-rect-top">
    <rect x="50.06" y="44.5" width="89" height="16.69" fill="#3c3c3c"/>
  </g>
  <g id="letter-wave-top">
    <path d="M405.12,172.66c-11.52,8.9-18.54,8.9-30.06,0-17.28-13.34-34.78-13.34-52,0-12.29,9.49-18.27,8.25-28.95,0-8.55-6.61-16.81-9.93-25.08-10V180.1c4.67,0,9.35,2.2,14.92,6.51,17.49,13.51,31.76,13.51,49.26,0,11.12-8.59,20.61-8.59,31.73,0,17.42,13.45,33,13.45,50.37,0,6.41-4.95,10.89-7.14,15.59-6.59V162.59C422.6,162.16,414.4,165.49,405.12,172.66Z" transform="translate(0 0)" fill="#3c3c3c"/>
  </g>
  <g id="letter-wave-bottom">
    <path d="M405.12,222.67c-11.52,8.9-18.54,8.9-30.06,0-17.28-13.34-34.78-13.34-52,0-12.29,9.49-18.27,8.25-28.95,0-8.55-6.61-16.81-9.93-25.08-10V230.1c4.67,0,9.35,2.2,14.92,6.51,17.49,13.51,31.76,13.51,49.26,0,11.12-8.59,20.61-8.59,31.73,0,17.42,13.45,33,13.45,50.37,0,6.41-4.95,10.89-7.14,15.59-6.59V212.6C422.6,212.16,414.4,215.5,405.12,222.67Z" transform="translate(0 0)" fill="#3c3c3c"/>
  </g>
  <g id="letter-top">
    <rect x="5.56" width="478.4" height="16.69" fill="#3c3c3c"/>
  </g>
  <g id="letter-bottom">
    <rect x="5.56" y="283.7" width="478.4" height="16.69" fill="#3c3c3c"/>
  </g>
  <g id="letter-left">
    <rect width="16.69" height="300.39" fill="#3c3c3c"/>
  </g>
  <g id="letter-right">
    <rect x="472.84" width="16.69" height="300.39" fill="#3c3c3c"/>
  </g>
</svg>
