<svg id="logo" xmlns="http://www.w3.org/2000/svg" viewBox="0 0 123.23 125.46">
  <title>logo-klein</title>
  <g id="logo-magellan">
    <g>
      <path d="M20.6,104.26c-1,0-1.22.2-1.22,1.29V113c0,1.09.2,1.24,1.22,1.29v.3c-.47,0-1.22,0-1.91,0s-1.5,0-1.92,0v-.3c1,0,1.21-.2,1.21-1.29v-8l-3.62,9.69h-.24l-3.79-9.73v7.92c0,1.1.2,1.4,1.37,1.44v.3c-.36,0-1,0-1.53,0s-1.06,0-1.39,0v-.3c1,0,1.22-.34,1.22-1.44v-7.29c0-1.09-.2-1.25-1.22-1.29V104c.33,0,.89,0,1.39,0s1,0,1.28,0l3.3,8.7L18,104h.71c.69,0,1.44,0,1.91,0v.3Z" transform="translate(-8.76 -12.87)" fill="#fff"/>
      <path d="M36.15,113.32c.3.76.73.94,1,1v.3c-.41,0-1,0-1.61,0-.78,0-1.5,0-1.92,0v-.3c.73,0,1.06-.14,1.06-.56a2.05,2.05,0,0,0-.18-.7l-.92-2.46H30l-.62,1.59a3.54,3.54,0,0,0-.3,1.23c0,.65.45.88,1.31.9v.3c-.57,0-1.2,0-1.73,0a11.07,11.07,0,0,0-1.12,0v-.3c.39-.09.84-.4,1.18-1.3l3.54-9.09h.24Zm-4.32-7.54-1.72,4.47h3.41Z" transform="translate(-8.76 -12.87)" fill="#fff"/>
      <path d="M51.71,104.72a.51.51,0,0,0,.3.15c.19,0,.32-.29.37-.92h.35c0,.73-.06,1.71-.06,3.45h-.35a4.64,4.64,0,0,0-.76-2.22A3.38,3.38,0,0,0,49,104c-2,0-3.31,2-3.31,5.27,0,3.6,1.13,5.21,3.58,5.21a2.75,2.75,0,0,0,1.56-.47.81.81,0,0,0,.43-.82v-1.44c0-1.22-.26-1.39-1.52-1.44V110c.53,0,1.45.05,2.12.05s1.2,0,1.56-.05v.3c-.66.05-.76.18-.76,1.29v3h-.3c0-.34-.15-.86-.41-.86s-.19,0-.49.26a3.69,3.69,0,0,1-2.35.81c-3.11,0-4.92-2-4.92-5.34,0-3.5,2-5.71,4.84-5.71A4.17,4.17,0,0,1,51.71,104.72Z" transform="translate(-8.76 -12.87)" fill="#fff"/>
      <path d="M68.76,114.58c-1,0-2.44,0-3.44,0s-2.88,0-4.36,0v-.3c1,0,1.22-.2,1.22-1.29v-7.44c0-1.09-.2-1.25-1.22-1.29V104c1.48,0,3.46,0,4.36,0s2.21,0,3.14,0c-.07.7-.1,1.43-.1,1.77a8.08,8.08,0,0,0,0,.93h-.34c-.2-1.77-.43-2.36-2-2.36H64.79c-1,0-1.22.15-1.22,1.25v3.54h1c1.31,0,1.28-1.26,1.39-2h.34c0,.64-.05,1.07-.05,1.41s0,.5,0,.72c0,.49,0,1,.09,2.13H66c-.12-1-.13-2-1.44-2h-1V113c0,1.09.2,1.24,1.22,1.24h1.1c1.88,0,2.25-.67,2.47-2.66h.35c0,.27,0,.67,0,1.08S68.68,113.82,68.76,114.58Z" transform="translate(-8.76 -12.87)" fill="#fff"/>
      <path d="M80.34,104.26c-1,0-1.22.2-1.22,1.29V113c0,1.09.2,1.24,1.22,1.24h1.1c1.88,0,2.25-.72,2.47-2.8h.34c0,.31,0,.75,0,1.23s0,1.16.1,1.92c-1,0-2.44,0-3.44,0s-2.88,0-4.36,0v-.3c1,0,1.22-.2,1.22-1.29v-7.44c0-1.09-.2-1.25-1.22-1.29V104c.42,0,1.15,0,1.92,0s1.45,0,1.91,0v.3Z" transform="translate(-8.76 -12.87)" fill="#fff"/>
      <path d="M95.58,104.26c-1,0-1.22.2-1.22,1.29V113c0,1.09.2,1.24,1.22,1.24h1.1c1.88,0,2.25-.72,2.47-2.8h.34c0,.31,0,.75,0,1.23s0,1.16.1,1.92c-1,0-2.44,0-3.44,0s-2.88,0-4.36,0v-.3c1,0,1.22-.2,1.22-1.29v-7.44c0-1.09-.2-1.25-1.22-1.29V104c.42,0,1.15,0,1.92,0s1.45,0,1.91,0Z" transform="translate(-8.76 -12.87)" fill="#fff"/>
      <path d="M114.88,113.32c.3.76.73.94,1,1v.3c-.41,0-1,0-1.62,0-.78,0-1.5,0-1.92,0v-.3c.73,0,1.06-.14,1.06-.56a2.06,2.06,0,0,0-.18-.7l-.92-2.46h-3.63l-.62,1.59a3.52,3.52,0,0,0-.3,1.23c0,.65.45.88,1.31.9v.3c-.57,0-1.2,0-1.73,0a11.07,11.07,0,0,0-1.12,0v-.3c.39-.09.84-.4,1.18-1.3l3.54-9.09h.24Zm-4.32-7.54-1.72,4.47h3.41Z" transform="translate(-8.76 -12.87)" fill="#fff"/>
      <path d="M132,104.26c-1,0-1.22.34-1.22,1.44v9h-.34l-6.31-9.73v7.92c0,1.1.2,1.4,1.37,1.44v.3c-.36,0-1,0-1.53,0s-1.06,0-1.39,0v-.3c1,0,1.22-.34,1.22-1.44v-7.29c0-1.09-.2-1.25-1.22-1.29V104c.33,0,.89,0,1.39,0s.84,0,1.17,0l5.31,8.16V105.7c0-1.1-.19-1.4-1.37-1.44V104c.36,0,1,0,1.53,0s1.06,0,1.39,0v.3Z" transform="translate(-8.76 -12.87)" fill="#fff"/>
    </g>
  </g>
  <g id="logo-media">
    <g>
      <path d="M52.85,130.71c-.75,0-.89.14-.89.95v5.46c0,.8.15.91.89.95v.22c-.34,0-.89,0-1.4,0s-1.1,0-1.41,0v-.22c.75,0,.89-.15.89-.95v-5.89l-2.66,7.11h-.18l-2.78-7.14V137c0,.81.15,1,1,1.06v.22c-.26,0-.75,0-1.13,0s-.78,0-1,0v-.22c.75,0,.89-.25.89-1.06v-5.34c0-.8-.15-.91-.89-.95v-.22c.24,0,.65,0,1,0s.7,0,.94,0l2.42,6.38,2.37-6.35h.52c.51,0,1.06,0,1.4,0Z" transform="translate(-8.76 -12.87)" fill="#fff"/>
      <path d="M64.19,138.28c-.75,0-1.79,0-2.53,0s-2.12,0-3.2,0v-.22c.75,0,.89-.15.89-.95v-5.46c0-.8-.15-.91-.89-.95v-.22c1.08,0,2.54,0,3.2,0s1.62,0,2.31,0c-.05.52-.08,1-.08,1.3a5.93,5.93,0,0,0,0,.68h-.25c-.15-1.3-.31-1.73-1.48-1.73h-.92c-.75,0-.89.11-.89.91v2.59h.73c1,0,.94-.92,1-1.45h.25c0,.47,0,.78,0,1s0,.37,0,.53c0,.36,0,.72.06,1.56h-.25c-.09-.7-.1-1.46-1.06-1.46h-.73v2.64c0,.8.15.91.89.91h.81c1.38,0,1.65-.49,1.81-1.95h.25c0,.2,0,.49,0,.79S64.13,137.72,64.19,138.28Z" transform="translate(-8.76 -12.87)" fill="#fff"/>
      <path d="M76.77,134.3a3.69,3.69,0,0,1-4,4l-1.55,0c-.52,0-1.06,0-1.37,0v-.22c.75,0,.89-.15.89-.95v-5.46c0-.8-.15-.91-.89-.95v-.22c.25,0,.67,0,1.08,0h.27l1.66,0C75.51,130.49,76.77,131.84,76.77,134.3Zm-5-2.66v5.5c0,.77.15.95.83.95,2.4,0,3.05-1.34,3.05-3.74s-.78-3.65-3.06-3.65C71.93,130.69,71.78,130.88,71.78,131.63Z" transform="translate(-8.76 -12.87)" fill="#fff"/>
      <path d="M85.25,130.71c-.75,0-.89.14-.89.95v5.46c0,.8.15.91.89.95v.22c-.34,0-.89,0-1.4,0s-1.1,0-1.41,0v-.22c.75,0,.89-.15.89-.95v-5.46c0-.8-.15-.91-.89-.95v-.22c.31,0,.84,0,1.41,0s1.06,0,1.4,0Z" transform="translate(-8.76 -12.87)" fill="#fff"/>
      <path d="M96.65,137.35c.22.56.53.69.76.7v.22c-.3,0-.76,0-1.19,0s-1.1,0-1.41,0v-.22c.53,0,.78-.1.78-.41a1.51,1.51,0,0,0-.13-.52l-.68-1.8H92.13l-.45,1.17a2.58,2.58,0,0,0-.22.9c0,.48.33.64,1,.66v.22c-.42,0-.88,0-1.27,0a8.13,8.13,0,0,0-.82,0v-.22c.29-.06.61-.3.87-1l2.6-6.67H94Zm-3.17-5.53-1.27,3.28h2.5Z" transform="translate(-8.76 -12.87)" fill="#fff"/>
    </g>
  </g>
  <g id="logo-body">
    <path d="M120,77.35c-6.62-.28-7.91-1.24-7.91-8.1V22.5c0-6.86,1.29-7.82,7.91-8.1l-.29-1.52H69.18c-5.93,0-14.54,0-20.28,0s-19.12,0-28,0l-.29,1.59c6.62.28,7.91,1.24,7.91,8.1V69.33c0,6.86-1.29,7.82-7.91,8.1l-.47,1.72c2.72,0,7.78,0,12.83,0,4.48,0,9.8,0,12.83,0l-.32-1.72c-6.62-.28-7.91-1.24-7.91-8.1V22.58c0-6.86,1.29-7.82,7.91-7.82h7.14C64.81,14.76,67,18.92,68.43,32H72.2C73.58,18.92,75.82,14.68,88,14.68h7.14c6.62,0,7.91,1,7.91,7.82V69.25c0,6.86-1.29,7.82-7.91,8.1l-.32,1.8c3,0,8.35,0,12.83,0,5,0,10.09,0,12.83,0Z" transform="translate(-8.76 -12.87)" fill="#fff"/>
  </g>
</svg>
