<svg id="pen" xmlns="http://www.w3.org/2000/svg" viewBox="0 0 55.25 55.25">
  <title>pen</title>
  <path id="pen-body" d="M52.62,2.63a9,9,0,0,0-12.73,0L3.83,38.69l0,.06-.06.08a1,1,0,0,0-.12.24l0,.08v0L0,54a1,1,0,0,0,0,.2s0,0,0,0a1,1,0,0,0,.06.33l0,.07a1,1,0,0,0,.2.3,1,1,0,0,0,.33.22,1,1,0,0,0,.38.08l.23,0,14.85-3.53.08,0,.1,0a1,1,0,0,0,.2-.12l.07-.05,0,0L52.62,15.36A9,9,0,0,0,52.62,2.63ZM51.2,4a7,7,0,0,1,.65,9.14L42.07,3.39A7,7,0,0,1,51.2,4ZM46.25,18.89,36.35,9l1.41-1.41,9.9,9.9ZM5,50.29a1,1,0,0,0-1.41,0L2.79,51,5.34,40.32l4.42-.49L9.2,44.95a1,1,0,0,0,0,.11,1,1,0,0,0,0,.11s0,.06,0,.09a1,1,0,0,0,.05.17,1,1,0,0,0,.1.18l.1.13a1,1,0,0,0,.16.13l.14.08L10,46l.11,0h.22l5.12-.57-.49,4.42L4.2,52.46,5,51.7A1,1,0,0,0,5,50.29Zm12.55-5.48L39.89,22.43A1,1,0,0,0,38.47,21L16.1,43.39l-4.77.53.53-4.77L34.23,16.77a1,1,0,0,0-1.41-1.41L10.44,37.74l-3.18.35L34.94,10.41l9.9,9.9L17.16,48ZM49.08,16.07l-9.9-9.9L40.6,4.75l9.9,9.9Z" transform="translate(0 0)"/>
</svg>
